<?xml version="1.0" standalone="no"?>
<!DOCTYPE svg PUBLIC "-//W3C//DTD SVG 20010904//EN"
 "http://www.w3.org/TR/2001/REC-SVG-20010904/DTD/svg10.dtd">
<svg version="1.0" xmlns="http://www.w3.org/2000/svg"
 width="4013.000000pt" height="4013.000000pt" viewBox="0 0 4013.000000 4013.000000"
 preserveAspectRatio="xMidYMid meet">
<metadata>
Created by potrace 1.14, written by Peter Selinger 2001-2017
</metadata>
<g transform="translate(0.000000,4013.000000) scale(0.100000,-0.100000)"
fill="#000000" stroke="none">
<path d="M19488 40055 c-1 -2 -88 -6 -193 -10 -183 -6 -245 -9 -420 -20 -44
-2 -118 -7 -165 -10 -88 -5 -189 -13 -275 -20 -27 -2 -84 -7 -125 -10 -41 -4
-88 -8 -105 -10 -16 -1 -64 -6 -105 -9 -41 -4 -86 -9 -100 -11 -14 -2 -59 -7
-100 -10 -41 -3 -82 -8 -90 -10 -8 -2 -49 -7 -90 -10 -41 -3 -82 -8 -90 -10
-8 -2 -40 -7 -70 -10 -52 -6 -314 -40 -390 -51 -44 -7 -217 -34 -250 -39 -14
-2 -43 -7 -65 -10 -22 -3 -62 -10 -90 -15 -27 -5 -68 -12 -90 -15 -23 -3 -52
-7 -65 -10 -14 -3 -52 -10 -85 -16 -33 -5 -141 -26 -240 -46 -99 -19 -189 -36
-200 -38 -38 -6 -230 -46 -310 -65 -44 -10 -91 -21 -105 -24 -90 -17 -534
-125 -770 -187 -173 -46 -437 -121 -610 -174 -102 -31 -192 -58 -201 -60 -42
-9 -667 -221 -849 -288 -411 -150 -879 -336 -1125 -447 -28 -12 -66 -29 -85
-37 -19 -9 -53 -24 -75 -34 -22 -9 -85 -38 -140 -62 -372 -166 -1032 -495
-1310 -652 -22 -12 -65 -36 -95 -52 -267 -145 -721 -414 -1055 -626 -310 -197
-684 -449 -913 -615 -276 -200 -530 -391 -735 -551 -73 -57 -510 -413 -517
-420 -3 -3 -32 -28 -65 -56 -68 -57 -467 -406 -475 -415 -3 -3 -34 -33 -70
-65 -172 -155 -371 -346 -651 -625 -296 -296 -396 -399 -584 -605 -49 -54
-101 -110 -115 -125 -23 -25 -136 -151 -170 -190 -107 -123 -131 -151 -343
-400 -129 -152 -366 -446 -482 -600 -44 -58 -83 -107 -86 -110 -12 -10 -298
-400 -433 -589 -76 -107 -210 -303 -297 -435 -88 -133 -163 -245 -167 -251
-22 -28 -275 -437 -384 -620 -186 -312 -324 -558 -531 -945 -52 -99 -272 -538
-345 -690 -175 -367 -495 -1110 -595 -1385 -8 -22 -56 -150 -106 -284 -221
-592 -431 -1263 -597 -1910 -36 -140 -67 -261 -69 -270 -2 -9 -19 -81 -38
-161 -28 -116 -93 -410 -121 -550 -3 -14 -15 -72 -26 -130 -12 -58 -24 -116
-26 -130 -2 -14 -7 -36 -9 -50 -3 -14 -8 -37 -10 -52 -3 -16 -7 -40 -10 -55
-6 -32 -35 -198 -39 -228 -10 -63 -19 -112 -23 -130 -2 -11 -6 -33 -8 -48 -12
-79 -16 -105 -20 -127 -3 -14 -8 -45 -11 -70 -3 -25 -7 -56 -10 -70 -2 -14 -8
-61 -14 -105 -6 -44 -13 -91 -15 -105 -5 -34 -24 -176 -30 -225 -3 -22 -10
-80 -15 -130 -6 -49 -13 -108 -16 -130 -2 -22 -7 -56 -9 -75 -3 -19 -7 -65
-10 -101 -3 -37 -7 -82 -9 -100 -3 -19 -8 -65 -11 -104 -6 -74 -12 -141 -20
-227 -2 -29 -7 -93 -10 -143 -4 -49 -8 -110 -10 -135 -2 -25 -7 -99 -10 -165
-4 -66 -8 -147 -10 -180 -27 -449 -27 -1684 -1 -2015 2 -25 7 -108 11 -185 3
-77 8 -156 10 -175 2 -19 6 -78 10 -130 3 -52 8 -111 10 -130 1 -19 6 -75 9
-125 4 -49 9 -101 11 -115 2 -14 7 -59 10 -100 4 -41 8 -86 9 -100 2 -14 7
-56 10 -95 4 -38 9 -81 11 -95 2 -14 6 -52 10 -85 3 -33 7 -71 10 -85 2 -14 7
-52 10 -85 3 -33 8 -67 10 -75 2 -8 6 -42 10 -75 5 -51 21 -166 40 -290 2 -16
7 -48 10 -70 3 -22 13 -80 21 -130 8 -49 17 -101 19 -115 2 -14 11 -68 20
-120 9 -52 18 -108 21 -125 21 -132 108 -571 154 -780 16 -71 31 -141 34 -155
6 -34 50 -217 87 -365 17 -66 32 -127 34 -135 14 -63 62 -243 87 -330 16 -58
31 -112 33 -120 8 -37 91 -320 161 -549 49 -161 229 -704 244 -736 4 -11 45
-121 90 -245 102 -278 288 -749 375 -945 7 -16 37 -84 66 -150 56 -129 81
-185 139 -310 20 -44 54 -118 75 -165 87 -189 402 -811 535 -1055 244 -446
510 -895 734 -1240 39 -60 99 -152 133 -205 34 -52 71 -108 83 -125 11 -16 94
-136 183 -265 89 -129 184 -264 210 -300 26 -36 53 -74 61 -85 27 -38 351
-470 367 -490 9 -11 81 -101 160 -200 117 -148 415 -509 454 -551 5 -6 35 -39
65 -74 71 -83 203 -234 210 -240 3 -3 43 -48 90 -100 47 -52 94 -104 105 -116
11 -11 76 -81 145 -155 68 -74 266 -276 440 -449 278 -278 412 -408 635 -612
33 -30 74 -67 90 -83 17 -15 59 -53 94 -84 35 -31 69 -60 75 -66 68 -62 196
-173 306 -266 202 -170 222 -187 380 -314 80 -64 163 -130 184 -148 22 -17 69
-54 105 -82 36 -27 68 -52 71 -55 22 -25 509 -382 735 -540 662 -464 1390
-911 2055 -1263 52 -27 129 -68 170 -90 441 -234 1144 -560 1645 -764 88 -36
174 -71 190 -78 17 -8 127 -50 245 -95 118 -45 224 -85 235 -90 11 -5 67 -26
125 -46 817 -283 1279 -423 1899 -578 285 -71 623 -151 706 -166 22 -4 119
-24 215 -43 349 -72 852 -159 1105 -192 27 -4 147 -20 215 -30 62 -9 109 -15
155 -20 28 -3 64 -8 80 -10 17 -2 75 -9 130 -15 55 -6 116 -13 135 -15 19 -2
62 -7 95 -10 33 -3 78 -8 100 -10 81 -8 221 -21 340 -30 33 -3 92 -7 130 -10
39 -3 95 -7 125 -10 30 -2 107 -7 170 -10 63 -3 147 -8 187 -10 303 -16 501
-20 1008 -20 570 0 867 7 1195 29 52 4 124 9 160 11 87 6 226 16 275 20 72 6
199 17 240 21 22 2 67 6 100 9 58 5 123 12 195 20 19 2 60 7 90 10 30 3 71 8
90 10 90 11 128 16 170 20 25 3 74 10 110 15 36 5 83 12 105 14 22 3 103 14
180 26 77 11 156 23 175 25 19 3 46 7 60 10 13 2 42 7 65 10 36 5 281 47 345
59 14 3 52 10 85 15 33 6 71 13 85 16 14 3 86 17 160 31 74 14 146 28 160 31
14 2 41 8 60 13 19 5 51 12 70 15 19 3 55 11 80 16 25 6 52 12 60 14 192 42
601 141 774 187 82 22 156 41 165 43 13 4 129 35 176 49 6 1 30 8 55 15 294
82 869 266 1165 372 94 33 181 64 195 69 14 5 57 21 95 35 39 15 81 30 95 35
14 4 68 24 120 45 52 20 147 57 210 82 63 24 129 51 145 58 17 8 64 27 105 44
65 25 220 91 530 226 41 18 124 56 184 84 59 28 110 51 111 51 19 0 877 429
1000 500 17 10 66 37 110 60 450 241 979 560 1485 895 447 296 815 560 1240
890 189 147 521 415 594 480 6 6 38 32 71 60 33 27 62 52 65 55 3 3 37 32 75
65 39 32 77 66 86 75 13 13 41 37 162 143 20 17 147 132 211 190 256 235 873
846 1066 1057 52 57 104 113 116 124 11 12 58 63 105 115 46 52 91 102 99 111
51 55 216 245 291 334 13 16 29 34 34 40 6 6 48 56 94 111 46 55 94 112 107
128 41 46 365 456 450 566 420 551 831 1151 1170 1706 92 151 317 533 349 592
14 26 34 62 44 78 10 17 49 87 86 155 37 69 80 148 95 175 121 221 345 669
483 965 134 289 167 361 167 365 0 2 13 32 29 67 34 74 170 394 236 558 264
651 522 1413 719 2120 79 286 224 864 252 1010 3 14 10 45 15 70 6 25 12 54
15 65 2 11 11 54 19 95 8 41 17 84 19 95 2 11 14 65 25 120 12 55 24 114 27
130 2 17 9 55 15 85 6 30 12 64 13 75 2 11 6 34 9 50 4 17 9 46 12 65 4 19 17
103 31 185 43 259 42 250 49 305 3 25 8 52 10 60 2 8 6 40 9 70 3 30 8 64 10
75 2 11 7 40 10 65 3 25 8 54 10 65 2 11 7 47 10 80 4 33 9 71 11 85 2 14 9
70 15 125 6 55 13 116 16 135 2 19 6 60 9 90 3 30 7 69 10 85 2 17 7 66 10
110 4 44 8 91 10 105 2 14 7 63 10 110 4 47 8 101 10 120 2 19 7 80 10 135 4
55 8 116 10 135 2 19 6 98 10 175 4 77 9 160 11 185 26 351 26 1562 -1 2020
-2 36 -7 119 -10 185 -4 66 -8 138 -10 160 -2 22 -7 81 -10 130 -3 50 -7 110
-10 135 -2 25 -7 77 -10 115 -3 39 -7 90 -10 115 -2 25 -7 74 -10 110 -3 36
-8 81 -10 100 -17 156 -27 241 -31 275 -3 22 -7 56 -9 75 -2 19 -13 105 -24
190 -12 85 -23 175 -26 200 -3 25 -10 70 -15 100 -5 30 -12 78 -16 105 -3 28
-7 57 -9 65 -2 8 -8 51 -15 95 -7 44 -14 89 -16 100 -2 11 -8 47 -14 80 -13
78 -26 151 -45 250 -8 44 -17 96 -20 115 -4 19 -10 53 -15 75 -5 22 -11 56
-14 75 -3 19 -17 89 -31 155 -14 66 -28 134 -31 150 -2 17 -7 38 -10 47 -3 9
-7 25 -9 35 -9 48 -47 218 -66 298 -11 50 -22 97 -24 105 -2 8 -17 71 -35 140
-18 69 -33 133 -35 143 -2 10 -27 104 -55 210 -29 106 -54 199 -56 207 -13 51
-25 95 -49 175 -15 50 -28 95 -29 100 -5 19 -47 160 -98 320 -27 88 -54 174
-59 190 -94 303 -300 873 -458 1268 -222 557 -394 939 -683 1517 -181 363
-230 456 -371 710 -44 80 -91 165 -105 190 -43 78 -173 304 -197 340 -12 19
-46 76 -75 125 -127 215 -363 587 -552 868 -88 130 -268 390 -286 412 -4 6
-30 42 -57 80 -50 71 -355 483 -380 513 -8 9 -74 94 -147 187 -72 94 -134 172
-137 175 -4 3 -33 39 -65 80 -33 41 -65 80 -70 85 -6 6 -29 33 -50 60 -22 28
-44 55 -51 60 -6 6 -18 20 -27 33 -8 12 -30 39 -49 60 -19 20 -57 64 -84 97
-28 33 -64 76 -81 95 -17 19 -86 98 -154 175 -68 77 -131 147 -139 156 -9 9
-59 63 -111 120 -52 57 -135 146 -185 199 -120 127 -667 674 -781 780 -174
163 -230 215 -275 256 -76 70 -242 217 -303 269 -32 28 -66 57 -75 66 -9 9
-79 69 -156 134 -77 65 -152 128 -167 140 -14 13 -86 72 -160 131 -73 59 -149
120 -168 136 -19 16 -39 32 -45 36 -5 4 -50 40 -100 78 -87 69 -449 342 -496
376 -13 9 -82 58 -154 110 -193 139 -229 163 -485 336 -1929 1301 -4060 2249
-6320 2812 -187 47 -543 130 -585 137 -16 2 -55 11 -85 18 -30 7 -68 16 -85
18 -16 3 -86 17 -155 31 -189 38 -641 121 -723 131 -57 8 -115 17 -232 35 -66
10 -174 26 -240 35 -66 8 -129 17 -140 19 -11 2 -51 7 -90 11 -38 4 -72 8 -75
10 -3 2 -39 6 -80 9 -41 4 -88 9 -105 11 -34 6 -91 12 -185 20 -36 3 -78 8
-95 10 -16 2 -68 7 -115 10 -47 4 -96 8 -110 11 -14 2 -65 6 -115 10 -49 3
-106 7 -125 9 -19 2 -87 7 -150 11 -63 3 -133 8 -155 9 -22 2 -112 6 -200 10
-88 4 -187 9 -220 12 -72 5 -1342 13 -1347 8z m552 -80 c0 -5 -356 -482 -370
-495 -3 -3 -23 -30 -45 -60 -22 -30 -42 -57 -45 -60 -3 -3 -61 -78 -128 -167
l-123 -163 53 -67 c28 -38 75 -97 102 -133 28 -36 53 -67 56 -70 3 -3 42 -52
86 -110 43 -58 81 -107 84 -110 15 -14 361 -463 358 -465 -2 -2 -158 -6 -348
-9 -190 -4 -374 -9 -410 -11 -36 -1 -130 -6 -210 -10 -80 -3 -161 -8 -180 -10
-19 -2 -82 -6 -140 -10 -58 -3 -125 -8 -150 -10 -25 -2 -81 -7 -125 -10 -44
-4 -92 -8 -108 -10 -15 -2 -62 -7 -105 -11 -173 -16 -275 -26 -292 -29 -9 -2
-43 -6 -75 -10 -33 -4 -71 -8 -85 -10 -36 -5 -131 -17 -160 -20 -48 -5 -218
-29 -355 -50 -49 -8 -108 -17 -130 -20 -23 -3 -52 -8 -65 -10 -29 -6 -146 -26
-175 -30 -39 -6 -411 -76 -480 -91 -38 -8 -79 -16 -90 -18 -21 -4 -260 -55
-285 -61 -8 -2 -73 -17 -145 -34 -1174 -274 -2388 -690 -3420 -1171 -223 -104
-480 -228 -605 -292 -249 -129 -425 -221 -435 -228 -5 -4 -50 -29 -100 -55
-49 -27 -123 -68 -163 -92 -41 -24 -75 -43 -78 -43 -2 0 -25 -13 -51 -28 -27
-16 -151 -91 -278 -166 -546 -325 -1078 -683 -1584 -1064 -112 -85 -209 -158
-215 -163 -6 -5 -96 -77 -201 -160 -166 -133 -481 -393 -495 -409 -3 -3 -54
-48 -115 -100 -60 -52 -115 -99 -121 -105 -17 -15 -194 -176 -223 -203 -164
-150 -287 -269 -516 -497 -281 -280 -486 -495 -669 -699 -33 -37 -70 -78 -81
-90 -11 -13 -47 -53 -80 -91 -33 -38 -65 -73 -70 -79 -19 -21 -231 -271 -275
-326 -25 -30 -47 -57 -50 -60 -4 -4 -119 -145 -143 -175 -4 -5 -45 -57 -90
-115 -46 -58 -149 -193 -230 -300 -81 -107 -150 -199 -155 -205 -143 -181
-665 -962 -847 -1268 -194 -327 -359 -614 -462 -807 -22 -41 -57 -106 -78
-144 -48 -89 -312 -618 -359 -718 -64 -139 -107 -232 -127 -278 -11 -25 -24
-52 -29 -61 -4 -9 -27 -61 -50 -115 -24 -54 -53 -122 -66 -151 -13 -28 -24
-54 -24 -57 0 -3 -11 -29 -24 -58 -127 -275 -426 -1095 -590 -1619 -96 -306
-297 -1040 -322 -1179 -3 -14 -7 -33 -10 -42 -3 -10 -7 -30 -10 -45 -3 -16
-14 -62 -24 -103 -41 -161 -162 -793 -215 -1120 -31 -188 -90 -625 -110 -805
-2 -22 -7 -67 -10 -100 -4 -33 -8 -71 -10 -85 -2 -14 -6 -61 -10 -105 -3 -44
-8 -96 -10 -115 -8 -63 -14 -134 -20 -215 -3 -44 -8 -107 -10 -140 -13 -177
-20 -301 -30 -580 -12 -316 -13 -345 -14 -497 l-1 -146 -172 -134 c-95 -74
-309 -241 -476 -371 l-303 -236 -147 112 c-81 62 -163 123 -182 137 -19 13
-37 27 -40 30 -3 4 -32 26 -65 51 -33 24 -65 49 -71 54 -7 6 -111 84 -233 175
l-222 165 7 315 c3 173 7 347 9 385 7 189 16 396 20 445 2 30 7 96 10 145 8
113 14 195 20 265 3 30 7 84 10 120 6 71 14 165 20 220 2 19 7 67 10 105 4 39
8 81 10 95 2 14 7 57 11 95 3 39 8 78 10 87 1 9 6 48 9 85 4 37 8 75 10 83 2
8 7 42 11 75 3 33 7 67 9 75 1 8 6 40 10 70 3 30 8 66 11 80 2 14 12 86 23
160 28 189 32 212 37 240 3 14 7 41 10 60 5 39 31 191 39 230 3 14 8 39 10 55
3 17 13 68 22 115 9 47 17 94 18 105 22 167 284 1300 345 1490 5 17 37 127 70
245 233 823 629 1914 944 2593 20 43 36 80 36 82 0 2 22 50 48 107 27 57 68
146 92 198 53 114 360 727 428 855 99 183 119 221 147 270 34 60 187 331 223
395 185 327 658 1067 905 1415 47 66 103 144 124 174 41 59 123 171 153 211
10 14 64 86 120 160 55 74 106 142 113 150 7 8 26 33 42 55 17 22 37 49 47 60
9 11 69 88 134 170 141 179 532 648 609 731 5 6 39 44 75 84 36 40 76 85 90
100 14 15 61 67 105 116 118 130 115 126 273 293 203 213 526 536 722 721 240
228 250 237 404 375 50 44 97 87 106 95 9 8 45 40 80 70 35 30 71 62 80 70 13
13 276 236 345 292 11 9 65 54 121 100 235 193 629 497 879 677 39 27 75 54
80 58 34 29 442 310 610 421 110 73 205 136 210 140 76 60 823 507 1185 709
231 129 391 212 785 408 495 245 895 426 1317 596 84 33 165 67 180 75 15 8
30 15 33 15 6 0 26 6 115 42 575 226 1411 498 2045 665 44 12 100 27 125 33
25 7 50 13 55 15 6 1 66 16 135 34 69 17 134 34 145 36 11 2 58 13 105 25 47
11 92 22 101 24 9 2 61 13 115 25 241 53 504 107 674 139 160 30 182 34 264
46 21 4 48 8 59 11 12 2 37 6 57 9 20 3 47 8 60 10 33 7 193 32 250 40 87 12
175 25 270 40 14 2 50 7 80 10 30 3 66 8 80 10 14 2 50 7 80 10 30 3 66 8 80
10 14 2 50 6 80 10 30 3 71 8 90 10 19 3 60 7 90 10 30 3 71 7 90 10 19 2 69
7 110 10 41 3 91 8 110 10 19 2 67 7 105 10 39 3 90 8 115 10 42 4 87 7 290
20 47 3 110 8 140 10 53 4 157 9 445 21 77 3 141 6 142 7 5 6 583 8 583 2z
m785 -10 c44 -2 141 -7 215 -10 247 -12 394 -20 500 -30 25 -2 90 -7 145 -11
55 -3 107 -8 117 -9 9 -2 52 -6 95 -10 43 -3 96 -8 118 -10 22 -3 69 -7 105
-10 36 -3 76 -7 90 -10 14 -3 48 -7 75 -9 47 -4 185 -21 265 -31 19 -3 91 -12
160 -20 214 -27 763 -114 950 -150 14 -2 86 -16 160 -31 74 -14 149 -28 165
-31 17 -2 80 -15 140 -28 61 -13 121 -26 135 -29 167 -32 844 -197 1090 -266
157 -44 412 -118 485 -140 613 -190 1153 -380 1665 -587 129 -52 249 -101 265
-108 17 -8 58 -25 92 -39 55 -23 132 -56 198 -86 11 -5 65 -29 120 -53 397
-176 1002 -475 1395 -689 133 -73 512 -289 613 -349 54 -33 102 -59 107 -59 4
0 10 -3 12 -8 2 -4 37 -27 78 -51 235 -138 788 -499 1090 -711 154 -109 447
-320 475 -343 6 -4 82 -62 170 -129 223 -169 736 -579 791 -633 6 -5 32 -28
59 -50 26 -22 53 -44 59 -50 6 -5 83 -73 171 -150 88 -77 165 -144 171 -150 6
-5 53 -48 104 -95 52 -47 108 -98 126 -115 17 -16 98 -93 180 -170 247 -234
574 -564 899 -909 26 -28 201 -221 291 -322 86 -96 292 -336 394 -459 41 -49
78 -92 81 -95 14 -12 374 -468 469 -595 58 -77 107 -142 110 -145 3 -3 45 -59
93 -125 49 -66 94 -127 100 -135 28 -35 342 -487 434 -625 297 -447 626 -988
874 -1440 169 -310 479 -917 578 -1135 19 -41 51 -111 71 -155 256 -553 507
-1178 712 -1770 44 -126 81 -237 84 -245 2 -8 19 -62 39 -120 34 -100 132
-415 141 -449 2 -9 19 -70 39 -136 90 -300 267 -985 316 -1220 7 -33 14 -64
15 -70 4 -20 55 -262 69 -330 15 -74 18 -88 40 -205 41 -221 56 -297 60 -320
8 -46 46 -285 50 -310 4 -28 24 -162 31 -200 4 -27 41 -300 49 -362 3 -21 7
-55 10 -75 14 -110 29 -241 40 -348 3 -27 8 -70 10 -95 3 -25 7 -70 10 -100 3
-30 7 -73 10 -95 2 -22 7 -76 10 -120 4 -44 8 -96 10 -115 2 -19 6 -78 10
-130 3 -52 8 -120 10 -150 2 -30 7 -102 10 -160 3 -58 8 -143 10 -190 15 -270
28 -820 20 -820 -5 0 -318 233 -360 267 -5 5 -139 106 -297 225 l-286 217 -41
-29 c-22 -16 -48 -36 -58 -45 -10 -8 -169 -132 -353 -275 -184 -144 -348 -271
-365 -284 -98 -78 -149 -116 -151 -113 -1 1 -5 126 -9 277 -10 424 -18 579
-51 1025 -2 33 -6 83 -9 110 -2 28 -7 79 -10 115 -3 36 -7 85 -10 110 -3 25
-7 70 -10 100 -9 98 -15 153 -25 230 -5 41 -12 98 -15 125 -8 67 -64 473 -69
505 -3 14 -16 97 -30 185 -15 88 -29 174 -31 190 -6 32 -24 133 -32 175 -2 14
-22 117 -44 230 -23 113 -43 214 -45 225 -10 53 -80 360 -120 525 -104 430
-216 830 -336 1200 -22 68 -41 131 -43 140 -3 13 -116 340 -180 520 -38 108
-171 458 -218 575 -66 163 -137 335 -157 380 -10 22 -34 77 -54 123 -142 325
-267 591 -422 897 -113 224 -233 455 -244 470 -4 6 -27 46 -50 90 -72 133
-314 555 -364 635 -13 19 -78 125 -147 235 -154 250 -468 720 -619 928 -63 87
-122 168 -130 180 -70 102 -580 761 -610 787 -3 3 -71 84 -151 180 -81 96
-155 184 -165 195 -11 11 -46 51 -79 90 -33 38 -64 75 -70 81 -5 6 -48 53 -95
104 -47 51 -93 102 -103 114 -117 134 -664 690 -877 891 -144 136 -291 270
-409 375 -41 36 -79 70 -85 75 -6 6 -45 39 -86 75 -41 36 -80 70 -86 75 -318
286 -1154 928 -1564 1200 -41 28 -77 52 -80 55 -3 3 -43 31 -90 61 -301 199
-635 409 -649 409 -5 0 -11 4 -13 8 -7 17 -605 358 -923 527 -131 70 -609 309
-715 358 -41 19 -114 53 -162 75 -47 22 -160 73 -250 112 -90 40 -176 78 -193
85 -16 8 -59 26 -95 40 -36 15 -83 35 -105 45 -22 10 -105 43 -185 74 -80 32
-154 61 -165 66 -11 5 -83 32 -160 60 -77 29 -153 58 -170 65 -16 7 -57 22
-90 33 -33 11 -139 48 -235 82 -436 152 -984 315 -1462 435 -236 59 -445 109
-508 121 -14 3 -53 11 -86 19 -34 8 -73 16 -86 19 -14 2 -72 14 -129 25 -146
30 -137 28 -314 61 -145 26 -336 59 -439 76 -21 3 -48 7 -60 10 -11 2 -42 6
-67 9 -25 3 -54 7 -65 9 -33 6 -98 16 -129 20 -45 6 -275 36 -310 41 -16 2
-75 9 -130 15 -55 6 -116 13 -135 15 -43 5 -104 12 -190 20 -36 3 -81 8 -100
10 -19 2 -73 7 -120 10 -47 4 -101 8 -120 10 -19 2 -82 6 -140 10 -58 4 -125
8 -150 10 -40 3 -128 8 -385 20 -38 2 -196 7 -350 10 -154 4 -282 10 -285 15
-3 4 -16 22 -30 40 -55 71 -183 237 -210 270 -15 19 -134 171 -263 338 l-236
303 70 92 c39 51 81 106 94 122 12 17 55 73 93 125 39 52 75 100 79 105 5 6
30 39 57 75 27 36 84 110 126 165 42 55 104 138 139 184 l64 83 296 -6 c163
-4 332 -9 376 -11z m-795 -1980 c0 -5 -367 -494 -517 -689 -34 -43 -50 -73
-45 -80 50 -67 108 -142 112 -146 4 -3 65 -81 137 -175 73 -93 181 -233 241
-310 60 -77 109 -141 108 -141 0 -1 -147 -5 -326 -8 -179 -4 -361 -9 -405 -11
-111 -5 -301 -16 -355 -20 -25 -1 -90 -6 -145 -10 -55 -3 -116 -8 -135 -10
-32 -3 -145 -14 -215 -20 -137 -12 -191 -17 -206 -20 -10 -2 -49 -7 -86 -10
-37 -4 -79 -8 -93 -10 -14 -2 -65 -9 -115 -15 -76 -9 -230 -30 -325 -45 -14
-2 -47 -7 -75 -11 -27 -3 -59 -8 -70 -10 -29 -6 -192 -32 -245 -39 -24 -4 -47
-8 -50 -10 -3 -2 -23 -6 -45 -9 -22 -3 -62 -11 -90 -16 -27 -5 -66 -12 -85
-15 -133 -21 -607 -124 -852 -186 -90 -22 -171 -42 -181 -44 -58 -12 -463
-126 -647 -181 -344 -104 -1046 -345 -1175 -403 -11 -5 -85 -35 -165 -67 -222
-87 -561 -233 -778 -335 -46 -21 -85 -39 -87 -39 -3 0 -123 -58 -267 -129
-444 -219 -814 -421 -1218 -664 -481 -290 -1121 -723 -1463 -989 -209 -162
-364 -284 -373 -293 -6 -5 -30 -26 -55 -45 -55 -44 -344 -285 -384 -321 -16
-15 -72 -63 -123 -108 -124 -109 -187 -165 -381 -346 -104 -96 -626 -618 -731
-730 -77 -83 -237 -257 -268 -292 -9 -11 -43 -49 -74 -84 -69 -79 -89 -101
-141 -163 -23 -27 -47 -54 -52 -60 -19 -19 -208 -249 -270 -326 -33 -41 -64
-80 -70 -86 -5 -6 -21 -26 -35 -44 -14 -18 -54 -69 -89 -114 -255 -324 -616
-834 -870 -1231 -175 -272 -475 -783 -603 -1024 -28 -53 -59 -110 -69 -127
-23 -38 -349 -690 -349 -697 0 -3 -20 -48 -44 -99 -80 -170 -106 -227 -190
-426 -145 -341 -205 -492 -328 -827 -171 -469 -324 -955 -444 -1413 -41 -158
-117 -464 -128 -517 -3 -11 -21 -94 -41 -185 -33 -152 -67 -315 -95 -465 -6
-33 -13 -69 -15 -80 -8 -40 -74 -441 -80 -485 -3 -25 -8 -52 -10 -60 -2 -8 -6
-40 -9 -70 -4 -30 -9 -68 -12 -85 -3 -16 -7 -43 -9 -60 -1 -16 -8 -66 -13
-110 -12 -88 -14 -106 -36 -305 -20 -176 -25 -228 -41 -440 -4 -41 -8 -91 -10
-110 -2 -19 -7 -89 -11 -155 -4 -66 -8 -138 -9 -160 -11 -157 -24 -557 -24
-740 l-1 -110 -213 -165 c-116 -91 -219 -170 -227 -177 -14 -12 -66 -52 -251
-195 l-85 -67 -345 262 c-190 144 -358 271 -373 282 -62 45 -59 21 -52 349 4
166 9 342 11 391 9 189 16 312 20 380 12 190 17 263 20 290 2 17 7 70 10 119
4 49 9 102 11 119 2 16 6 62 9 101 3 39 10 107 15 151 6 44 12 103 15 130 9
90 14 137 20 179 10 75 15 111 20 156 11 91 42 302 59 406 3 16 10 65 16 109
7 44 14 89 16 100 2 11 11 58 19 105 8 47 17 95 19 106 2 12 7 37 10 56 28
177 159 787 226 1053 28 110 52 207 54 215 31 127 150 550 207 735 353 1145
794 2200 1364 3260 140 260 417 735 568 975 33 52 78 124 101 160 83 131 303
460 429 640 106 151 405 560 454 620 7 8 65 83 130 165 111 141 267 335 351
434 96 113 214 252 227 265 6 6 41 47 80 91 38 44 86 98 107 120 20 22 45 49
55 61 233 269 959 996 1219 1221 12 10 57 50 100 89 179 162 536 466 704 599
41 33 77 62 80 65 13 14 252 199 415 322 644 483 1329 930 2014 1312 301 169
420 231 741 392 317 158 445 219 710 336 74 33 153 68 175 78 22 10 81 34 130
55 50 21 114 48 143 61 29 13 55 24 58 24 3 0 20 6 37 14 18 8 95 39 172 70
637 249 1321 475 1915 632 30 8 89 24 130 35 85 23 102 27 131 34 11 2 29 7
39 10 10 3 27 8 37 10 10 2 97 22 193 45 96 23 186 44 199 46 12 3 53 12 90
20 36 9 75 17 86 19 17 3 73 14 140 29 64 14 356 70 450 87 61 10 119 21 130
23 11 2 42 7 68 10 27 4 56 9 65 11 30 5 276 44 322 50 25 3 56 8 70 10 14 2
48 6 75 9 28 4 84 11 125 17 109 14 124 16 235 29 55 6 114 13 130 15 17 2 62
7 100 11 39 3 84 8 100 9 17 2 68 6 115 10 47 4 96 8 110 10 14 2 70 7 125 11
55 4 116 8 135 9 283 19 340 22 585 31 110 3 201 7 202 8 6 5 453 6 453 1z
m750 -10 c300 -13 369 -16 400 -20 19 -2 80 -7 135 -10 55 -4 116 -8 135 -9
19 -2 80 -7 135 -11 55 -4 107 -9 116 -10 8 -2 55 -6 105 -10 49 -4 98 -9 109
-11 11 -2 53 -7 94 -10 42 -3 83 -7 93 -9 9 -2 48 -7 85 -10 37 -4 75 -8 83
-10 8 -3 40 -7 70 -10 64 -7 362 -48 430 -60 31 -5 202 -32 255 -40 22 -3 78
-13 125 -21 47 -9 96 -18 110 -20 70 -12 250 -46 285 -54 31 -7 247 -52 361
-74 11 -2 51 -12 89 -21 39 -9 81 -19 95 -21 67 -13 458 -111 640 -160 486
-132 1168 -350 1575 -505 105 -39 208 -78 230 -86 22 -8 54 -20 70 -28 17 -7
57 -23 90 -36 33 -12 159 -64 280 -115 204 -85 314 -133 488 -213 37 -17 69
-31 71 -31 8 0 352 -167 556 -269 293 -147 427 -218 710 -377 91 -50 183 -102
205 -114 22 -12 52 -31 67 -41 14 -11 29 -19 32 -19 28 0 1024 -634 1151 -733
6 -4 101 -73 213 -152 176 -125 475 -347 537 -396 11 -10 99 -79 195 -155 96
-76 177 -141 180 -144 3 -3 41 -35 85 -70 44 -36 85 -69 91 -75 16 -15 57 -49
169 -145 55 -47 105 -89 111 -95 10 -9 122 -108 164 -145 10 -8 59 -53 110
-100 51 -47 107 -98 124 -113 255 -234 768 -747 987 -988 13 -15 60 -66 104
-115 44 -48 87 -95 95 -104 8 -9 44 -50 80 -91 36 -41 70 -79 75 -85 6 -6 31
-35 56 -64 24 -29 49 -58 54 -64 43 -48 240 -284 321 -386 54 -69 101 -127
104 -130 4 -3 19 -23 35 -45 17 -22 33 -42 36 -45 6 -5 279 -366 314 -414 11
-16 29 -40 41 -55 19 -25 100 -137 191 -266 90 -127 454 -676 533 -805 46 -74
103 -165 127 -202 24 -37 43 -69 43 -72 0 -3 24 -44 53 -93 30 -48 65 -108 79
-133 244 -430 261 -460 368 -665 79 -150 286 -565 333 -665 19 -41 50 -109 70
-150 97 -208 337 -766 407 -950 87 -229 205 -546 220 -590 10 -30 42 -122 70
-205 29 -82 53 -154 54 -160 1 -5 19 -62 40 -125 69 -208 248 -819 271 -925 2
-11 12 -47 21 -80 9 -33 17 -67 19 -75 2 -8 22 -91 45 -184 22 -94 50 -212 61
-264 11 -52 22 -102 24 -111 10 -41 94 -449 98 -476 3 -16 15 -82 27 -145 12
-63 23 -124 25 -135 1 -11 5 -36 9 -55 10 -59 16 -93 21 -130 3 -19 8 -51 11
-70 10 -60 12 -73 24 -150 15 -97 16 -105 24 -170 4 -30 9 -66 11 -80 3 -14 7
-45 10 -70 3 -25 7 -62 10 -82 3 -21 7 -55 10 -75 3 -21 7 -58 10 -83 5 -48
14 -123 20 -180 2 -19 7 -66 10 -105 4 -38 8 -81 10 -95 2 -14 7 -61 10 -105
3 -44 8 -96 10 -115 3 -19 7 -69 10 -110 3 -41 7 -104 10 -140 2 -36 7 -105
10 -155 5 -85 8 -141 20 -380 2 -55 7 -212 10 -348 l6 -248 -45 33 c-119 89
-563 425 -580 440 -11 10 -38 30 -60 45 -23 16 -47 34 -54 41 -17 15 -2 25
-222 -147 -102 -80 -223 -174 -270 -210 -47 -36 -87 -68 -90 -71 -3 -3 -34
-28 -70 -54 -36 -27 -84 -65 -107 -84 l-43 -34 -1 93 c-1 175 -15 600 -24 729
-3 36 -7 103 -10 150 -2 47 -7 112 -10 145 -3 33 -7 87 -10 120 -6 91 -15 195
-20 240 -2 22 -7 72 -10 110 -3 39 -8 77 -10 85 -2 8 -7 48 -10 88 -4 41 -8
81 -10 90 -1 9 -6 46 -10 82 -4 36 -9 73 -11 84 -2 10 -6 44 -10 75 -3 31 -8
63 -9 72 -2 9 -6 40 -10 70 -3 30 -8 61 -10 69 -3 8 -7 35 -10 59 -4 38 -57
356 -70 431 -3 14 -7 39 -10 55 -3 17 -8 41 -10 55 -3 14 -7 34 -9 45 -273
1408 -675 2649 -1263 3905 -164 349 -342 693 -591 1140 -207 372 -606 994
-911 1420 -175 246 -646 859 -691 900 -3 3 -39 46 -80 95 -41 50 -77 92 -80
95 -3 3 -44 50 -91 105 -160 185 -233 267 -454 504 -181 195 -681 688 -905
891 -51 47 -98 90 -104 95 -22 20 -183 161 -240 210 -32 28 -67 57 -78 67 -10
9 -38 31 -60 50 -23 18 -49 40 -57 49 -13 13 -138 113 -457 368 -102 81 -565
422 -639 471 -12 8 -92 63 -176 121 -343 237 -791 515 -1184 736 -282 158
-370 206 -635 340 -996 504 -2028 902 -3100 1193 -151 41 -575 147 -620 155
-19 3 -80 17 -135 30 -55 13 -192 42 -305 65 -113 22 -216 43 -230 45 -14 3
-41 8 -60 11 -19 3 -71 12 -115 19 -44 8 -96 17 -115 20 -19 3 -42 8 -50 10
-8 2 -37 6 -65 10 -27 3 -61 8 -75 10 -32 7 -46 9 -265 39 -99 14 -205 27
-235 31 -30 3 -66 8 -80 10 -31 5 -96 13 -175 20 -33 3 -76 8 -95 10 -19 2
-64 7 -100 10 -36 3 -81 8 -100 10 -31 4 -102 9 -247 20 -318 24 -743 42
-1014 44 l-107 1 -59 78 c-48 62 -402 518 -524 672 l-27 36 140 184 c77 102
161 214 187 249 25 35 51 69 56 75 6 6 37 47 70 91 33 44 75 99 94 123 l34 43
286 -6 c157 -4 315 -8 351 -10z m-720 -7074 c0 -5394 0 -5461 -19 -5461 -14 0
-19 -6 -18 -20 1 -12 8 -20 19 -20 17 0 18 -111 18 -2630 l0 -2630 -8150 0
-8151 0 6 278 c3 152 7 306 10 342 2 36 7 121 10 190 3 69 8 150 10 180 2 30
6 98 10 150 3 52 8 111 10 130 2 19 7 69 10 110 3 41 8 86 10 100 2 14 6 61
10 105 3 44 8 91 10 105 2 14 6 50 10 80 3 30 8 72 11 93 2 20 6 54 8 75 11
90 19 148 22 166 2 11 6 42 9 70 3 28 12 92 20 141 8 50 16 107 19 128 13 84
17 113 22 137 2 14 11 66 19 115 9 50 22 124 30 165 8 41 17 87 19 102 3 15
12 63 20 105 23 109 26 124 31 158 3 17 28 131 56 255 259 1162 649 2301 1156
3380 53 113 274 555 320 640 22 41 64 120 93 175 29 55 77 143 107 195 30 52
58 103 64 113 25 46 183 316 203 347 13 19 67 106 121 194 368 596 862 1280
1323 1831 59 70 178 211 182 215 3 3 34 39 70 80 36 41 79 91 97 110 17 19 41
46 53 60 166 192 640 677 920 942 154 145 162 152 290 268 46 41 88 80 94 85
12 11 210 182 297 256 515 439 1244 976 1787 1315 35 21 91 56 125 78 270 169
640 384 887 514 58 30 110 58 115 62 20 15 575 290 723 360 904 419 1806 744
2766 995 99 26 186 48 195 50 9 2 72 17 141 34 176 42 417 95 580 126 14 3 59
11 100 20 105 20 192 36 279 51 18 3 43 8 55 10 19 4 250 41 301 49 11 1 58 8
105 14 47 7 96 14 110 16 52 8 98 14 180 25 138 18 152 19 210 25 30 3 71 7
90 10 19 2 64 7 100 10 36 3 85 8 110 10 63 7 133 13 220 20 41 3 93 8 115 10
22 2 94 7 160 10 66 3 138 8 160 10 22 2 121 6 220 10 99 4 181 8 182 9 1 0
114 3 252 4 l251 4 0 -5461z m690 5444 c284 -14 409 -21 530 -30 177 -14 263
-21 345 -30 22 -2 92 -9 155 -15 63 -6 128 -13 143 -16 16 -2 52 -7 80 -9 59
-5 290 -35 382 -50 17 -3 50 -8 75 -11 25 -3 56 -8 70 -10 14 -3 41 -7 60 -10
85 -11 438 -72 460 -79 8 -2 31 -7 50 -10 28 -4 174 -33 361 -70 13 -3 37 -8
53 -11 16 -2 32 -7 36 -9 4 -2 22 -7 41 -10 19 -3 129 -28 244 -56 116 -28
217 -52 226 -54 75 -16 439 -116 657 -181 637 -189 1384 -464 1935 -713 26
-11 68 -31 95 -42 309 -140 622 -293 915 -449 265 -141 340 -181 352 -190 6
-4 35 -21 65 -37 364 -198 981 -592 1445 -922 195 -138 634 -470 740 -560 17
-14 51 -42 75 -61 52 -42 223 -184 299 -249 65 -56 72 -61 151 -131 35 -30 72
-63 83 -73 12 -10 57 -50 100 -90 44 -40 91 -83 106 -96 250 -227 662 -636
930 -926 41 -44 97 -105 125 -135 28 -30 85 -94 126 -141 41 -47 101 -115 132
-150 693 -793 1417 -1829 1940 -2779 68 -123 89 -162 132 -244 55 -102 356
-703 356 -710 0 -2 20 -46 44 -97 24 -52 70 -152 101 -224 31 -71 65 -149 76
-173 55 -122 282 -688 294 -732 3 -8 28 -78 56 -155 53 -145 129 -363 133
-380 1 -5 24 -75 50 -155 27 -80 49 -149 50 -155 2 -5 17 -55 34 -110 94 -302
222 -789 307 -1165 40 -178 136 -656 149 -740 3 -19 12 -78 21 -130 9 -52 18
-106 20 -120 2 -14 11 -70 20 -125 9 -55 18 -120 21 -145 3 -25 7 -56 9 -70 2
-14 6 -45 10 -70 3 -25 7 -61 10 -80 3 -19 7 -53 9 -75 3 -22 10 -76 15 -120
12 -96 19 -161 26 -235 3 -30 7 -75 10 -100 11 -106 19 -202 30 -360 2 -25 6
-81 9 -125 6 -82 15 -251 21 -385 2 -41 7 -198 10 -347 l6 -273 -8111 0 -8110
0 0 2630 0 2630 25 0 c18 0 25 5 25 20 0 15 -7 20 -25 20 l-25 0 0 2660 0
2660 39 0 c34 0 40 3 38 20 -1 16 -8 20 -39 20 l-38 0 0 2781 0 2781 258 -6
c141 -4 300 -8 352 -11z m19100 -16128 c9 -6 42 -32 74 -56 l58 -43 -7 -382
c-4 -209 -8 -412 -10 -451 -6 -146 -17 -368 -20 -418 -2 -29 -7 -99 -10 -157
-4 -58 -8 -116 -10 -130 -2 -14 -7 -77 -10 -140 -4 -63 -8 -117 -10 -120 -2
-3 -6 -48 -10 -100 -3 -52 -8 -102 -10 -110 -2 -8 -7 -53 -10 -99 -4 -47 -8
-92 -10 -100 -1 -9 -6 -50 -10 -91 -4 -41 -9 -83 -10 -92 -2 -9 -6 -45 -10
-80 -3 -35 -8 -74 -10 -88 -8 -52 -15 -106 -19 -145 -5 -38 -11 -84 -21 -150
-3 -16 -7 -47 -10 -67 -12 -87 -16 -116 -26 -178 -6 -36 -12 -78 -14 -95 -4
-31 -62 -371 -70 -415 -3 -14 -9 -47 -15 -75 -5 -27 -12 -63 -15 -80 -2 -16
-10 -57 -16 -90 -6 -33 -13 -69 -14 -80 -3 -17 -29 -139 -40 -185 -2 -8 -13
-60 -24 -115 -92 -446 -253 -1075 -401 -1565 -173 -575 -443 -1337 -635 -1795
-86 -207 -236 -557 -263 -615 -17 -36 -43 -94 -59 -130 -106 -233 -386 -801
-519 -1050 -354 -666 -768 -1347 -1187 -1955 -109 -158 -415 -585 -426 -595
-3 -3 -60 -77 -126 -165 -105 -141 -167 -221 -224 -290 -9 -11 -41 -52 -71
-90 -30 -39 -59 -75 -65 -81 -5 -6 -21 -26 -35 -44 -14 -18 -30 -38 -35 -44
-6 -6 -30 -36 -55 -66 -55 -67 -52 -64 -241 -285 -84 -99 -165 -193 -180 -210
-16 -16 -37 -41 -48 -54 -29 -34 -152 -171 -181 -201 -14 -15 -72 -78 -130
-140 -322 -349 -748 -773 -1099 -1096 -35 -32 -74 -68 -85 -79 -12 -11 -60
-54 -106 -95 -47 -41 -87 -77 -90 -80 -3 -3 -41 -37 -85 -75 -44 -39 -82 -72
-85 -76 -24 -26 -539 -453 -685 -567 -139 -109 -406 -314 -508 -390 -554 -412
-1345 -932 -1877 -1234 -25 -14 -108 -62 -185 -106 -350 -199 -995 -534 -1310
-679 -49 -23 -130 -60 -180 -84 -560 -261 -1277 -545 -1975 -782 -147 -50
-568 -183 -608 -192 -9 -3 -102 -29 -207 -60 -104 -30 -217 -62 -250 -71 -33
-9 -71 -20 -85 -25 -135 -45 -1130 -274 -1365 -314 -16 -2 -39 -7 -50 -9 -56
-11 -244 -46 -270 -50 -16 -3 -100 -17 -185 -31 -85 -15 -168 -29 -185 -31
-16 -3 -55 -9 -85 -14 -30 -5 -75 -11 -100 -14 -25 -4 -54 -8 -65 -10 -11 -2
-45 -7 -75 -11 -58 -7 -81 -10 -145 -19 -22 -3 -59 -8 -82 -11 -24 -3 -60 -7
-80 -10 -135 -16 -204 -25 -243 -29 -25 -3 -72 -8 -104 -12 -69 -8 -85 -9
-186 -18 -41 -4 -95 -9 -120 -11 -52 -6 -114 -11 -225 -20 -44 -3 -100 -8
-125 -10 -25 -2 -94 -7 -155 -10 -60 -4 -132 -9 -160 -10 -27 -2 -111 -6 -185
-10 -74 -3 -173 -8 -220 -10 -47 -2 -222 -7 -389 -11 l-304 -7 24 34 c13 19
80 108 149 199 69 91 202 266 295 390 93 124 172 227 175 230 3 3 24 31 48 62
l42 58 -157 202 c-87 112 -170 219 -184 238 -15 19 -110 142 -213 273 l-186
237 143 1 c248 1 599 14 922 34 218 14 219 14 405 30 25 2 74 7 110 10 36 3
86 7 113 10 26 3 68 7 95 10 76 8 144 15 182 20 38 5 115 14 170 20 76 9 259
33 300 39 14 2 46 7 71 10 25 4 57 9 70 11 13 2 44 6 69 9 57 7 471 77 540 91
14 3 52 10 85 16 125 23 355 69 490 99 77 17 149 33 160 35 11 3 34 8 50 12
17 4 32 7 35 8 3 1 19 4 35 8 17 4 40 9 53 12 13 2 32 7 42 10 10 3 27 8 37
10 17 3 277 69 338 85 545 143 1104 320 1630 513 195 72 478 181 560 216 11 5
61 26 110 46 50 21 110 46 135 57 25 10 54 23 65 27 11 5 45 20 75 34 30 14
82 36 115 50 33 14 100 44 148 66 49 23 90 41 92 41 14 0 595 286 825 406 384
201 890 492 1245 717 170 108 538 350 553 365 8 6 22 17 32 22 50 27 464 326
720 519 125 95 460 359 470 370 3 3 41 35 85 71 44 36 91 74 105 86 191 162
250 213 275 235 17 15 41 37 55 49 107 91 314 280 484 440 119 112 609 602
711 711 187 200 331 358 440 483 33 38 67 76 75 85 9 9 40 45 70 81 30 36 60
70 65 76 19 21 201 240 228 274 7 8 57 71 113 140 55 69 152 193 215 275 106
138 152 199 294 392 28 37 114 160 192 273 79 113 146 210 150 215 23 29 267
406 375 580 189 303 416 693 560 965 22 41 56 103 74 137 57 103 318 628 394
793 426 914 774 1861 1040 2829 59 216 157 602 185 731 57 263 97 449 101 470
3 14 14 70 24 125 11 55 21 111 24 125 2 14 11 63 20 110 8 47 18 101 21 120
3 19 10 58 15 85 5 28 12 68 15 90 3 23 7 52 10 65 5 25 51 339 60 415 3 22 8
51 10 65 3 14 7 50 10 80 3 30 8 62 10 70 2 8 7 49 10 90 3 41 8 82 10 90 2 8
7 49 10 90 3 41 8 82 10 90 2 8 6 51 10 95 3 44 8 96 10 115 8 70 28 330 40
520 22 348 33 677 35 1000 l1 155 132 102 c73 56 291 225 484 377 l353 275
402 -305 c222 -167 410 -310 418 -317z m-2500 366 c14 -13 28 -23 32 -23 3 0
13 -6 20 -13 7 -7 141 -109 297 -227 l283 -215 -7 -360 c-4 -198 -8 -389 -10
-425 -2 -36 -6 -126 -10 -200 -3 -74 -8 -155 -10 -180 -2 -25 -6 -85 -9 -135
-6 -95 -14 -190 -21 -265 -2 -25 -7 -79 -10 -120 -3 -41 -8 -91 -10 -110 -2
-19 -9 -82 -15 -140 -6 -58 -13 -121 -15 -140 -4 -39 -12 -105 -20 -177 -5
-39 -26 -193 -50 -368 -6 -46 -35 -237 -39 -265 -14 -79 -57 -329 -61 -350 -2
-13 -7 -42 -11 -65 -3 -22 -14 -83 -25 -135 -11 -52 -22 -108 -25 -125 -18
-102 -123 -571 -178 -795 -122 -497 -249 -930 -426 -1450 -129 -378 -174 -506
-190 -532 -5 -10 -10 -22 -10 -28 0 -14 -174 -453 -260 -655 -341 -802 -728
-1558 -1174 -2293 -61 -100 -116 -190 -121 -200 -27 -44 -315 -492 -327 -507
-5 -5 -72 -102 -150 -215 -77 -113 -214 -303 -302 -423 -89 -120 -170 -230
-181 -245 -11 -15 -36 -48 -56 -72 -20 -25 -96 -121 -170 -215 -73 -93 -136
-172 -139 -175 -3 -3 -39 -45 -80 -95 -69 -84 -282 -336 -305 -361 -5 -6 -23
-27 -40 -45 -105 -120 -183 -207 -205 -230 -14 -15 -68 -73 -120 -130 -257
-279 -644 -666 -950 -950 -175 -163 -174 -162 -246 -225 -37 -32 -72 -64 -78
-69 -6 -6 -47 -42 -91 -80 -44 -38 -82 -71 -85 -74 -3 -3 -32 -29 -65 -57 -33
-28 -71 -60 -85 -72 -75 -63 -291 -241 -320 -262 -18 -14 -49 -40 -69 -57 -20
-18 -39 -33 -43 -33 -4 0 -13 -6 -20 -12 -35 -33 -504 -391 -584 -446 -11 -7
-63 -44 -117 -82 -532 -382 -1225 -818 -1772 -1115 -38 -21 -92 -50 -120 -65
-428 -235 -1136 -572 -1620 -772 -143 -59 -628 -250 -645 -254 -3 0 -18 -6
-33 -12 -16 -7 -33 -12 -38 -12 -5 0 -17 -4 -27 -10 -15 -8 -471 -169 -497
-175 -5 -1 -17 -5 -25 -8 -53 -21 -634 -198 -730 -223 -8 -2 -64 -17 -125 -34
-60 -17 -117 -33 -125 -35 -8 -2 -123 -31 -255 -64 -132 -34 -256 -64 -275
-67 -19 -3 -38 -8 -41 -10 -16 -10 -603 -133 -804 -168 -88 -16 -144 -26 -179
-31 -21 -3 -41 -7 -45 -9 -3 -2 -30 -7 -60 -11 -30 -4 -61 -8 -70 -10 -9 -1
-36 -6 -61 -10 -25 -4 -52 -9 -61 -10 -9 -2 -40 -6 -69 -10 -29 -4 -62 -9 -74
-11 -12 -3 -34 -6 -51 -8 -16 -2 -68 -9 -115 -16 -95 -13 -122 -17 -195 -25
-27 -4 -57 -8 -65 -10 -8 -2 -49 -7 -90 -10 -41 -3 -82 -8 -90 -10 -8 -2 -46
-7 -85 -10 -38 -3 -81 -8 -95 -10 -14 -2 -59 -7 -100 -11 -41 -3 -88 -8 -105
-9 -16 -2 -73 -6 -125 -10 -52 -4 -108 -8 -124 -10 -16 -2 -74 -7 -130 -10
-56 -4 -128 -8 -160 -10 -33 -3 -114 -7 -180 -10 -67 -3 -157 -8 -201 -10
-170 -10 -615 -16 -615 -9 0 6 53 78 97 134 75 92 466 617 466 625 0 8 -144
197 -429 560 -110 141 -163 210 -161 211 1 1 128 5 282 9 154 3 305 8 335 10
30 1 120 6 200 10 80 3 165 8 190 10 25 2 86 6 135 9 50 3 113 8 140 11 28 2
75 7 105 10 90 8 173 16 210 20 19 2 67 7 105 11 39 3 77 7 85 9 8 1 44 6 80
10 36 3 76 8 90 10 24 4 124 17 235 31 28 3 57 7 65 9 8 1 40 6 70 10 30 4 64
9 75 11 31 6 67 12 110 18 56 8 117 18 140 22 11 3 35 7 54 10 18 3 43 8 55
10 11 2 37 7 56 10 19 3 67 11 105 19 39 8 86 17 105 20 50 8 254 50 395 80
199 43 707 170 920 230 110 31 207 58 215 60 31 7 225 69 515 164 415 136 867
307 1275 481 136 58 530 234 559 251 9 4 131 65 271 133 256 126 432 217 590
306 47 26 117 64 155 85 350 192 919 548 1330 834 202 140 513 368 686 502 31
24 85 66 120 94 35 27 118 94 184 148 66 54 140 115 165 135 45 38 182 154
235 201 40 34 297 263 311 276 6 5 53 48 104 95 193 175 845 835 983 993 10
12 49 55 85 96 80 88 92 102 146 164 22 27 50 59 61 71 11 12 40 46 65 76 25
30 61 72 80 95 429 507 931 1194 1293 1769 208 331 393 648 587 1006 71 131
357 699 398 790 11 25 37 81 57 125 452 980 829 2088 1069 3140 43 190 93 421
102 475 3 14 16 81 29 150 22 116 66 372 80 465 4 22 15 94 25 160 10 66 21
145 25 175 4 30 9 63 11 72 3 19 41 332 50 413 2 28 7 66 9 85 2 19 7 69 10
110 3 41 8 91 10 110 9 76 31 372 41 565 11 204 12 230 19 575 6 304 8 336 24
350 28 24 73 58 430 336 l336 262 50 -36 c28 -20 61 -47 75 -59z m-27950 -561
c0 -31 4 -38 20 -39 17 -2 20 4 20 38 l0 39 2645 0 2645 0 0 -38 c0 -31 4 -38
20 -39 17 -2 20 4 20 38 l0 39 2645 0 2645 0 0 -2665 c0 -2658 0 -2665 -20
-2665 -26 0 -26 -30 0 -37 20 -5 20 -16 20 -5470 l0 -5466 -308 7 c-169 4
-343 9 -387 11 -44 2 -136 7 -205 10 -157 8 -222 12 -435 30 -16 1 -68 5 -115
9 -77 6 -299 29 -407 41 -24 3 -64 7 -90 10 -27 3 -61 8 -78 10 -16 2 -52 7
-80 10 -27 4 -60 8 -71 10 -12 2 -48 7 -80 10 -33 4 -66 9 -74 10 -8 1 -35 6
-60 9 -118 18 -407 65 -435 71 -5 1 -32 5 -60 9 -27 4 -66 12 -85 16 -19 5
-51 11 -71 14 -20 3 -42 8 -50 10 -8 3 -30 7 -49 10 -19 3 -80 15 -135 26 -55
11 -116 23 -135 26 -19 3 -38 8 -41 9 -5 4 -108 27 -179 41 -26 5 -296 69
-340 81 -14 3 -29 7 -35 8 -5 2 -73 19 -150 40 -676 177 -1389 416 -2031 680
-373 154 -905 398 -1177 539 -398 208 -474 249 -529 283 -21 13 -39 23 -42 23
-4 0 -185 103 -231 131 -16 10 -37 22 -45 26 -27 12 -332 197 -475 288 -460
290 -1026 690 -1385 978 -8 7 -58 46 -110 87 -52 41 -97 77 -100 80 -3 3 -41
35 -85 70 -83 67 -96 78 -181 151 -28 24 -77 67 -109 94 -84 71 -295 259 -365
325 -207 192 -319 301 -489 471 -187 186 -271 273 -456 470 -106 112 -379 421
-476 539 -30 36 -62 74 -72 85 -48 51 -387 479 -510 642 -292 388 -724 1021
-862 1261 -6 9 -53 89 -106 177 -139 230 -238 405 -412 727 -129 236 -366 727
-499 1028 -50 113 -99 225 -110 250 -26 57 -154 374 -220 545 -62 162 -221
606 -232 650 -1 6 -30 96 -64 200 -120 373 -251 839 -328 1168 -7 31 -14 62
-18 82 -2 11 -10 43 -16 70 -6 28 -13 57 -15 65 -6 24 -36 163 -41 185 -23
115 -32 157 -39 195 -2 14 -13 70 -24 125 -22 112 -58 304 -65 350 -3 17 -14
89 -25 160 -11 72 -23 148 -26 170 -3 22 -8 56 -11 75 -27 195 -37 269 -49
385 -3 28 -8 61 -10 75 -2 14 -7 52 -10 85 -3 33 -8 80 -10 105 -3 25 -7 68
-9 95 -3 28 -7 75 -10 105 -6 58 -13 141 -21 255 -2 39 -7 102 -10 140 -5 74
-13 222 -20 370 -2 50 -7 228 -11 398 l-6 307 2821 0 2821 0 0 -38z m16040 -1
c0 -34 3 -40 20 -38 16 1 20 8 20 39 l0 38 2675 0 2675 0 0 -38 c0 -31 4 -38
20 -39 17 -2 20 4 20 38 l0 39 2746 0 2746 0 -7 -322 c-4 -178 -8 -350 -10
-383 -8 -168 -17 -317 -20 -375 -10 -141 -24 -326 -30 -390 -3 -25 -7 -70 -10
-100 -3 -30 -7 -75 -10 -100 -3 -25 -7 -70 -10 -100 -3 -30 -7 -71 -10 -90 -6
-47 -13 -104 -20 -170 -3 -30 -8 -66 -10 -80 -4 -24 -8 -50 -20 -145 -3 -22
-7 -51 -9 -65 -2 -14 -7 -46 -10 -71 -4 -25 -9 -57 -11 -70 -2 -13 -6 -41 -9
-61 -3 -21 -9 -55 -12 -75 -3 -21 -7 -49 -10 -63 -2 -14 -7 -41 -10 -60 -3
-19 -7 -46 -10 -60 -16 -87 -65 -350 -70 -375 -3 -16 -19 -93 -35 -170 -16
-77 -39 -185 -50 -240 -12 -55 -55 -233 -95 -395 -87 -345 -74 -294 -119 -450
-19 -69 -37 -133 -40 -142 -38 -156 -274 -866 -393 -1183 -287 -762 -641
-1523 -1027 -2210 -34 -60 -74 -131 -88 -156 -42 -76 -292 -491 -356 -591
-380 -591 -683 -1016 -1070 -1498 -214 -266 -574 -687 -716 -836 -11 -11 -74
-79 -140 -149 -161 -172 -485 -496 -674 -675 -177 -167 -158 -149 -281 -260
-52 -47 -97 -87 -100 -90 -3 -3 -39 -34 -80 -70 -41 -36 -77 -67 -80 -70 -3
-3 -32 -28 -65 -55 -33 -28 -62 -53 -65 -56 -49 -54 -709 -572 -950 -744 -30
-22 -59 -43 -65 -48 -11 -8 -137 -98 -169 -119 -10 -7 -35 -25 -55 -39 -443
-312 -1135 -736 -1576 -965 -49 -25 -94 -50 -100 -54 -24 -19 -797 -400 -811
-400 -2 0 -41 -17 -86 -39 -239 -111 -1022 -432 -1113 -455 -5 -2 -23 -9 -40
-15 -158 -66 -1204 -394 -1356 -425 -13 -3 -112 -27 -219 -55 -107 -27 -206
-52 -220 -55 -14 -2 -56 -12 -95 -21 -38 -9 -77 -18 -85 -20 -8 -2 -55 -12
-105 -24 -49 -11 -102 -22 -117 -25 -15 -2 -63 -12 -105 -20 -43 -9 -89 -18
-103 -21 -14 -3 -47 -9 -75 -15 -80 -15 -105 -20 -190 -35 -44 -7 -96 -16
-115 -20 -19 -3 -51 -8 -70 -12 -19 -3 -44 -7 -55 -9 -11 -2 -40 -7 -65 -10
-25 -3 -54 -8 -65 -10 -11 -2 -38 -7 -60 -10 -42 -5 -83 -11 -125 -19 -14 -2
-49 -7 -79 -10 -30 -4 -62 -8 -71 -10 -9 -2 -41 -6 -71 -9 -30 -3 -63 -8 -74
-10 -23 -4 -90 -12 -305 -35 -52 -6 -126 -13 -165 -16 -38 -3 -88 -8 -110 -10
-46 -5 -120 -11 -250 -20 -49 -4 -110 -8 -135 -10 -24 -2 -103 -7 -175 -10
-71 -4 -166 -8 -210 -10 -44 -3 -198 -7 -342 -11 l-263 -6 0 2785 0 2786 38 3
c25 2 37 8 37 18 0 10 -12 16 -37 18 l-38 3 0 2660 0 2659 23 0 c16 0 23 6 24
20 1 15 -4 20 -23 20 l-24 0 0 2665 0 2665 2650 0 2650 0 0 -39z m-23386 -306
c4 -170 8 -353 11 -405 3 -52 7 -144 10 -205 4 -104 12 -225 20 -325 2 -25 7
-88 10 -140 3 -52 8 -108 10 -125 2 -16 7 -66 10 -110 4 -44 8 -91 10 -105 2
-14 7 -61 11 -105 3 -44 8 -88 10 -98 2 -10 6 -48 9 -85 3 -37 8 -78 10 -92 3
-14 7 -47 10 -75 6 -48 9 -70 19 -145 3 -19 8 -57 11 -85 3 -27 8 -61 10 -75
3 -14 7 -41 9 -60 3 -19 9 -64 15 -100 6 -36 13 -83 16 -105 3 -22 8 -51 10
-65 3 -14 7 -47 11 -75 3 -27 8 -53 10 -56 1 -3 6 -28 9 -55 4 -27 11 -68 16
-92 5 -23 12 -59 15 -80 3 -20 7 -44 9 -52 2 -8 7 -30 10 -47 12 -76 18 -105
51 -267 19 -94 36 -180 38 -191 3 -11 10 -42 16 -70 6 -27 13 -59 16 -70 2
-11 7 -33 11 -50 4 -16 7 -32 8 -35 1 -3 4 -18 8 -35 4 -16 9 -39 11 -50 4
-16 67 -282 81 -335 2 -8 8 -33 13 -55 118 -472 325 -1144 519 -1680 58 -160
90 -244 180 -475 30 -77 110 -272 128 -315 7 -16 48 -111 90 -210 43 -99 94
-216 115 -260 21 -44 48 -102 60 -130 87 -191 285 -594 380 -775 34 -63 87
-162 117 -220 107 -201 381 -679 462 -805 14 -22 32 -53 41 -68 19 -36 198
-316 298 -469 398 -607 901 -1276 1358 -1808 45 -52 239 -275 249 -286 5 -6
44 -48 85 -94 328 -366 903 -945 1229 -1236 30 -27 64 -58 75 -69 12 -11 55
-49 96 -85 41 -36 80 -70 85 -76 21 -23 299 -258 485 -410 351 -287 693 -547
1048 -796 187 -131 644 -438 672 -451 8 -4 49 -29 90 -57 41 -27 104 -66 139
-87 35 -21 75 -45 90 -54 46 -29 404 -241 451 -267 25 -14 91 -51 148 -84 57
-32 105 -58 107 -58 2 0 34 -17 72 -38 170 -96 728 -380 918 -467 163 -75 496
-225 500 -225 3 0 28 -11 57 -24 29 -14 121 -53 203 -87 83 -33 164 -67 180
-74 319 -135 876 -331 1460 -515 60 -19 246 -74 380 -112 198 -56 749 -195
900 -227 22 -5 117 -25 210 -45 270 -58 424 -88 730 -141 147 -25 588 -92 660
-99 28 -3 59 -7 70 -10 11 -2 50 -7 87 -10 37 -4 77 -9 90 -11 22 -4 102 -13
178 -20 19 -2 58 -6 85 -9 28 -3 77 -8 110 -11 33 -3 78 -8 100 -10 22 -3 76
-7 120 -10 44 -3 100 -7 125 -10 217 -24 869 -52 1222 -54 l166 -1 302 -387
c165 -214 307 -395 313 -403 7 -8 38 -48 69 -88 l57 -72 -134 -178 c-74 -97
-143 -188 -154 -202 -40 -52 -228 -301 -335 -443 l-111 -149 -345 7 c-190 4
-372 8 -405 10 -189 8 -376 17 -415 20 -25 2 -94 7 -155 10 -148 10 -181 12
-269 19 -41 4 -101 9 -133 11 -32 3 -80 7 -108 10 -27 3 -75 8 -105 11 -30 3
-73 7 -95 9 -22 2 -67 7 -100 10 -33 3 -73 8 -90 10 -16 2 -75 9 -130 15 -55
6 -111 13 -125 15 -14 2 -63 9 -110 15 -105 13 -119 15 -255 35 -60 9 -121 18
-135 20 -14 2 -70 11 -125 20 -55 9 -116 18 -135 21 -19 3 -57 9 -85 14 -27 6
-68 12 -90 16 -59 8 -573 107 -680 130 -11 3 -40 9 -65 14 -69 13 -225 49
-320 71 -47 12 -96 23 -110 26 -86 15 -652 164 -910 238 -803 231 -1804 593
-2475 895 -27 12 -63 28 -80 35 -587 261 -1175 558 -1729 872 -748 425 -1424
866 -2116 1382 -63 47 -117 88 -120 91 -3 3 -41 32 -85 65 -44 33 -82 62 -85
65 -3 3 -45 37 -95 75 -49 38 -137 107 -195 155 -58 47 -113 92 -124 100 -10
8 -40 33 -66 55 -25 22 -98 83 -160 135 -127 106 -359 307 -449 389 -203 185
-328 300 -449 416 -183 174 -523 516 -692 695 -202 213 -186 196 -387 417 -50
55 -147 164 -165 185 -10 13 -40 47 -66 77 -190 220 -309 364 -635 771 -7 8
-34 44 -62 80 -27 36 -52 67 -55 70 -9 9 -312 417 -374 505 -8 11 -35 48 -60
83 -25 34 -46 66 -46 71 0 5 -4 11 -8 13 -16 6 -244 343 -517 763 -199 307
-540 892 -774 1325 -68 127 -362 713 -438 875 -78 165 -143 306 -143 310 0 2
-15 36 -34 77 -45 96 -170 389 -236 553 -29 72 -58 144 -66 161 -65 149 -385
1026 -399 1096 -2 9 -9 27 -16 40 -7 13 -11 24 -10 26 1 1 -16 57 -38 125 -76
234 -175 568 -284 967 -42 151 -179 717 -178 735 0 2 -5 19 -10 37 -5 18 -12
47 -15 63 -3 17 -18 89 -34 160 -16 72 -31 148 -35 170 -3 22 -10 56 -15 75
-5 19 -11 53 -15 75 -3 22 -7 47 -10 55 -5 17 -7 30 -35 192 -12 64 -23 127
-25 140 -9 41 -45 257 -50 296 -3 20 -7 48 -9 62 -5 28 -8 46 -31 205 -16 112
-23 162 -29 212 -2 15 -9 64 -15 108 -6 44 -13 100 -15 125 -7 54 -15 122 -21
170 -2 19 -7 64 -10 100 -6 67 -12 119 -20 180 -2 19 -7 73 -10 120 -4 47 -8
99 -10 115 -4 29 -11 120 -20 255 -2 36 -7 101 -10 145 -3 44 -7 112 -10 150
-5 70 -14 254 -20 415 -8 189 -17 720 -12 720 4 0 347 -256 372 -277 6 -5 78
-60 160 -122 83 -61 158 -119 169 -128 10 -8 72 -55 138 -104 l120 -89 41 32
c23 18 44 35 47 38 3 3 32 26 65 51 103 78 718 558 755 588 19 16 36 29 36 28
1 -1 5 -141 8 -312z m1631 -5 c3 -168 8 -330 10 -360 1 -30 6 -120 10 -200 3
-80 8 -161 10 -180 2 -19 6 -80 10 -135 4 -55 8 -111 10 -125 2 -14 6 -68 10
-120 3 -52 8 -106 10 -120 2 -14 6 -59 10 -100 3 -41 8 -82 10 -90 2 -8 7 -49
10 -90 4 -41 8 -82 10 -90 1 -8 6 -44 10 -80 4 -36 9 -74 11 -85 2 -11 7 -43
9 -71 3 -28 7 -60 10 -72 2 -12 11 -72 20 -134 19 -131 22 -153 35 -228 5 -30
12 -75 15 -100 4 -24 8 -47 10 -50 1 -3 6 -25 9 -50 3 -25 8 -56 11 -70 9 -45
26 -135 41 -215 5 -32 83 -410 89 -435 2 -8 19 -85 39 -170 35 -150 93 -384
156 -620 200 -751 559 -1739 905 -2485 20 -44 48 -105 62 -135 126 -271 343
-694 538 -1045 343 -619 848 -1383 1294 -1960 34 -44 72 -93 84 -109 21 -28
86 -110 150 -191 18 -21 103 -124 189 -228 162 -194 246 -292 409 -472 15 -16
37 -41 49 -55 171 -198 872 -900 1087 -1088 17 -14 63 -56 197 -177 12 -11 48
-42 81 -70 32 -27 63 -55 69 -60 6 -6 54 -46 106 -90 52 -44 97 -82 100 -85 3
-3 28 -24 55 -45 28 -22 52 -42 55 -45 3 -3 28 -23 55 -45 28 -21 52 -42 55
-45 3 -3 41 -34 85 -68 44 -35 87 -68 95 -75 8 -7 80 -62 160 -123 124 -94
211 -158 520 -381 99 -72 575 -387 725 -480 631 -393 1236 -717 1900 -1020
169 -77 467 -206 588 -254 56 -22 116 -47 132 -54 17 -7 91 -37 165 -65 822
-316 1699 -573 2560 -751 168 -35 375 -74 440 -84 24 -4 47 -8 50 -10 3 -2 26
-6 50 -10 25 -3 59 -9 75 -11 17 -3 39 -7 50 -9 11 -2 49 -8 85 -13 71 -12
388 -57 460 -66 25 -4 65 -9 90 -12 25 -3 79 -9 120 -15 42 -5 103 -12 135
-14 33 -3 76 -7 95 -10 19 -3 62 -7 95 -10 33 -3 80 -7 105 -10 56 -6 151 -13
255 -20 44 -3 103 -8 130 -10 28 -2 111 -7 185 -10 74 -4 160 -8 190 -10 30
-2 199 -7 375 -11 l320 -6 25 -31 c14 -17 50 -63 80 -102 30 -40 150 -193 265
-341 116 -147 215 -275 222 -284 9 -13 -1 -32 -61 -111 -39 -51 -163 -215
-275 -364 -112 -148 -213 -278 -225 -289 -20 -17 -38 -18 -346 -12 -179 4
-354 9 -390 11 -36 2 -128 6 -205 9 -77 4 -169 9 -205 11 -106 8 -211 15 -285
20 -38 3 -92 7 -120 10 -52 6 -92 9 -210 20 -75 6 -123 11 -195 19 -25 3 -67
8 -95 11 -55 6 -273 33 -320 40 -16 2 -68 9 -115 15 -47 6 -96 13 -109 15 -13
2 -45 7 -70 10 -25 4 -86 13 -136 21 -49 8 -101 17 -115 19 -14 2 -68 11 -120
20 -52 9 -108 18 -125 21 -16 2 -102 18 -190 35 -88 17 -170 33 -181 35 -20 4
-201 41 -234 49 -8 2 -49 10 -90 19 -41 8 -115 25 -165 37 -49 11 -97 22 -105
24 -187 39 -738 187 -1095 295 -400 121 -1152 382 -1340 465 -16 7 -73 30
-125 50 -210 83 -615 257 -830 358 -52 24 -117 54 -145 67 -69 31 -688 340
-700 350 -5 4 -68 38 -140 75 -149 78 -608 340 -769 438 -59 37 -110 67 -111
67 -2 0 -25 15 -52 32 -26 18 -81 53 -121 78 -147 90 -682 449 -857 575 -229
164 -642 473 -681 510 -6 5 -26 21 -44 35 -89 67 -548 449 -680 566 -123 109
-238 212 -256 229 -12 11 -68 63 -125 115 -228 210 -561 538 -799 790 -219
231 -252 266 -370 400 -41 47 -89 101 -106 120 -33 37 -181 207 -218 250 -76
89 -271 329 -375 460 -67 85 -128 163 -136 172 -74 91 -388 518 -535 728 -160
230 -572 865 -644 995 -9 17 -22 39 -29 50 -44 71 -86 143 -184 315 -194 343
-282 508 -448 839 -117 234 -245 498 -245 506 0 2 -36 81 -110 240 -110 235
-371 888 -487 1215 -63 178 -143 410 -147 425 -1 6 -18 60 -38 120 -100 301
-284 937 -313 1075 -2 8 -8 35 -15 60 -7 25 -14 53 -16 62 -2 10 -6 26 -8 36
-2 10 -11 47 -20 83 -9 35 -18 73 -20 84 -3 11 -14 63 -26 115 -12 52 -23 104
-26 115 -2 11 -13 61 -24 110 -11 50 -22 101 -24 115 -3 14 -16 80 -30 146
-13 67 -27 137 -30 155 -3 19 -16 93 -30 164 -14 72 -28 148 -31 170 -3 22
-14 92 -25 155 -10 63 -22 135 -25 160 -8 55 -14 97 -20 130 -2 14 -7 45 -10
70 -3 25 -8 56 -10 70 -3 14 -7 48 -10 75 -3 28 -12 102 -20 165 -8 63 -17
140 -20 170 -4 30 -8 66 -10 80 -2 14 -6 57 -10 95 -3 39 -8 86 -10 105 -2 19
-7 67 -10 105 -3 39 -7 90 -10 115 -12 124 -30 390 -40 595 -3 72 -8 163 -10
204 -3 41 -7 209 -11 374 -5 250 -4 298 8 291 14 -8 570 -427 689 -519 45 -35
76 -52 83 -47 28 22 193 148 206 159 82 66 555 431 556 430 1 -1 5 -139 9
-307z"/>
<path d="M19740 30773 c0 -21 4 -22 68 -18 37 2 72 4 79 4 6 1 11 10 10 20 -1
17 -9 19 -79 18 -73 -2 -78 -3 -78 -24z"/>
<path d="M19472 30782 c-48 -3 -53 -5 -50 -25 3 -19 8 -21 59 -18 85 4 94 6
94 27 0 20 -7 21 -103 16z"/>
<path d="M19238 30765 c-1 -2 -28 -4 -58 -6 -69 -3 -79 -6 -76 -27 2 -11 12
-16 32 -16 108 3 113 4 123 23 8 14 7 20 -3 24 -8 3 -16 4 -18 2z"/>
<path d="M18930 30737 c-6 -6 -82 -16 -122 -16 -21 -1 -25 -5 -21 -22 5 -19
10 -20 82 -14 42 4 78 9 80 11 2 2 0 13 -5 25 -5 11 -12 18 -14 16z"/>
<path d="M18585 30689 c-16 -4 -48 -9 -70 -11 -32 -3 -40 -8 -40 -23 0 -17 6
-20 35 -17 19 1 44 4 55 7 11 2 30 4 43 4 15 1 22 7 22 20 0 26 -9 30 -45 20z"/>
<path d="M18270 30639 c-19 -4 -52 -10 -72 -13 -30 -5 -38 -12 -38 -28 0 -18
4 -20 33 -14 17 4 51 9 75 13 46 6 58 15 45 36 -6 10 -18 11 -43 6z"/>
<path d="M17935 30574 c-33 -7 -66 -13 -72 -13 -20 -1 -16 -41 5 -41 23 0 131
26 138 33 3 3 2 12 -3 20 -7 12 -17 12 -68 1z"/>
<path d="M17605 30501 c-38 -10 -69 -21 -67 -24 1 -4 2 -11 2 -17 0 -14 34
-12 98 6 32 9 58 18 60 19 5 4 -10 35 -17 34 -3 0 -37 -9 -76 -18z"/>
<path d="M17293 30421 c-61 -15 -71 -24 -55 -47 12 -18 154 25 150 45 -4 21
-22 22 -95 2z"/>
<path d="M16993 30333 c-64 -21 -72 -27 -63 -42 9 -17 13 -17 85 6 68 22 74
26 65 44 -6 10 -12 19 -13 18 -1 0 -35 -12 -74 -26z"/>
<path d="M16692 30236 c-35 -12 -63 -25 -63 -29 1 -4 1 -13 1 -21 0 -12 15
-10 76 11 55 18 74 29 72 41 -4 23 -16 23 -86 -2z"/>
<path d="M16400 30133 c-75 -28 -82 -33 -71 -52 8 -12 20 -10 76 10 65 23 87
42 69 59 -5 4 -38 -3 -74 -17z"/>
<path d="M16135 30032 c-6 -5 -31 -17 -57 -26 -45 -16 -60 -37 -39 -50 5 -3
25 1 45 9 20 8 52 22 71 29 25 11 33 19 29 30 -7 17 -34 21 -49 8z"/>
<path d="M15798 29887 c-58 -28 -66 -34 -55 -48 11 -14 19 -12 80 15 43 20 67
36 65 45 -5 24 -20 22 -90 -12z"/>
<path d="M15513 29757 c-66 -33 -68 -34 -55 -55 12 -18 144 44 140 66 -5 25
-19 23 -85 -11z"/>
<path d="M15235 29620 c-72 -37 -77 -41 -65 -60 8 -12 18 -10 67 14 74 37 83
44 76 62 -7 19 -11 18 -78 -16z"/>
<path d="M14948 29467 c-36 -20 -58 -39 -58 -49 0 -26 15 -22 86 17 44 25 61
40 58 50 -9 21 -21 18 -86 -18z"/>
<path d="M14676 29312 c-33 -20 -61 -43 -64 -49 -8 -26 29 -24 72 3 24 16 51
34 61 39 10 6 14 16 10 28 -9 22 -10 22 -79 -21z"/>
<path d="M14413 29151 c-63 -42 -72 -51 -66 -67 7 -18 14 -16 86 30 39 25 55
41 51 51 -8 21 -22 18 -71 -14z"/>
<path d="M14133 28968 c-53 -35 -60 -43 -51 -58 11 -16 17 -14 75 24 57 37 75
65 48 72 -5 2 -38 -16 -72 -38z"/>
<path d="M13873 28786 c-54 -38 -61 -45 -50 -60 11 -15 18 -13 72 25 33 23 61
43 63 44 5 4 -10 35 -17 35 -3 0 -34 -20 -68 -44z"/>
<path d="M13640 28613 c-25 -19 -54 -41 -64 -49 -16 -11 -17 -16 -7 -28 12
-14 18 -12 55 14 85 62 86 64 73 81 -11 14 -17 12 -57 -18z"/>
<path d="M13395 28422 c-17 -15 -43 -37 -59 -50 -26 -20 -28 -25 -15 -37 13
-13 21 -9 69 30 51 42 69 74 45 81 -5 2 -24 -9 -40 -24z"/>
<path d="M13126 28196 c-36 -32 -56 -57 -52 -64 12 -20 29 -13 86 39 47 43 52
51 40 64 -13 12 -22 7 -74 -39z"/>
<path d="M12889 27986 c-46 -43 -54 -56 -45 -68 10 -14 20 -9 71 37 53 48 58
55 45 69 -13 13 -21 9 -71 -38z"/>
<path d="M12661 27772 c-48 -46 -62 -74 -43 -86 4 -2 34 21 65 51 51 49 56 58
44 70 -13 13 -21 8 -66 -35z"/>
<path d="M12440 27551 c-59 -60 -62 -67 -46 -80 11 -9 24 0 65 41 28 29 51 58
51 64 0 28 -29 18 -70 -25z"/>
<path d="M12213 27311 c-45 -48 -50 -58 -38 -70 13 -13 19 -10 47 20 78 81 79
83 59 96 -15 9 -25 2 -68 -46z"/>
<path d="M12002 27073 c-38 -43 -48 -61 -40 -70 16 -19 19 -17 70 41 31 35 46
60 42 70 -9 25 -17 20 -72 -41z"/>
<path d="M11798 26828 c-39 -48 -45 -62 -35 -73 10 -12 17 -8 45 23 18 20 42
49 53 64 19 26 19 27 2 36 -15 8 -26 -1 -65 -50z"/>
<path d="M11610 26593 c-51 -68 -53 -72 -40 -88 10 -12 20 -4 61 47 38 47 47
64 38 74 -17 20 -20 18 -59 -33z"/>
<path d="M11414 26328 c-40 -57 -47 -81 -24 -85 17 -3 103 115 94 129 -12 19
-34 5 -70 -44z"/>
<path d="M11231 26065 c-40 -59 -46 -85 -18 -85 7 0 31 29 54 65 39 59 41 65
25 74 -15 8 -25 -1 -61 -54z"/>
<path d="M11057 25799 c-36 -57 -43 -96 -15 -87 6 2 29 32 51 67 32 51 37 65
26 72 -21 13 -21 13 -62 -52z"/>
<path d="M10907 25553 c-13 -21 -31 -52 -40 -70 -15 -28 -15 -32 -1 -37 9 -3
17 -6 19 -6 10 0 75 125 71 137 -9 22 -25 15 -49 -24z"/>
<path d="M19850 25436 c-3 -3 -38 -6 -78 -7 -66 -2 -72 -4 -72 -23 0 -20 4
-21 76 -18 52 3 77 8 81 17 6 16 0 39 -7 31z"/>
<path d="M19477 25404 c-2 -2 -78 -12 -99 -13 -3 -1 -4 -10 -1 -22 4 -15 11
-19 32 -15 14 3 50 8 79 11 42 6 52 10 52 26 0 15 -6 19 -30 17 -17 -1 -32 -3
-33 -4z"/>
<path d="M19199 25366 c-2 -2 -23 -6 -46 -9 -76 -11 -93 -18 -93 -39 0 -17 5
-19 33 -14 17 3 52 8 75 12 43 7 63 27 45 45 -5 5 -11 8 -14 5z"/>
<path d="M10737 25256 c-41 -69 -44 -81 -23 -89 10 -4 26 14 50 58 40 70 42
80 23 88 -9 3 -27 -17 -50 -57z"/>
<path d="M18803 25283 c-59 -15 -78 -33 -53 -48 6 -4 44 1 84 11 61 15 72 21
68 36 -5 21 -17 21 -99 1z"/>
<path d="M18550 25211 c-101 -27 -120 -35 -120 -47 0 -24 19 -25 90 -4 56 17
70 25 70 40 0 21 -1 21 -40 11z"/>
<path d="M18198 25093 c-51 -19 -68 -30 -68 -44 0 -24 5 -24 88 7 58 21 69 29
65 45 -6 23 -3 24 -85 -8z"/>
<path d="M10616 25033 c-3 -4 -20 -36 -37 -71 -24 -51 -28 -67 -17 -73 7 -5
15 -9 18 -9 6 0 70 127 70 139 0 11 -26 22 -34 14z"/>
<path d="M17897 24968 c-62 -29 -80 -49 -58 -62 10 -7 151 53 151 64 0 4 -6
12 -13 18 -10 8 -30 3 -80 -20z"/>
<path d="M17614 24829 c-71 -36 -76 -41 -68 -62 5 -14 15 -11 75 19 63 32 83
54 61 68 -5 3 -35 -9 -68 -25z"/>
<path d="M10442 24684 c-32 -64 -34 -84 -7 -84 15 0 78 127 69 141 -13 22 -32
5 -62 -57z"/>
<path d="M17379 24703 c-2 -5 -30 -24 -61 -42 -61 -34 -63 -37 -49 -60 7 -11
18 -8 55 18 26 17 51 31 55 31 5 0 14 7 21 16 11 12 11 18 -2 30 -9 9 -17 12
-19 7z"/>
<path d="M17051 24489 c-69 -50 -66 -46 -52 -63 10 -12 22 -8 76 30 43 30 62
50 58 59 -8 23 -23 18 -82 -26z"/>
<path d="M10309 24395 c-29 -65 -30 -85 -5 -85 13 0 77 135 68 144 -17 17 -36
-1 -63 -59z"/>
<path d="M16787 24294 c-55 -44 -68 -70 -34 -68 8 1 40 21 71 45 42 33 53 46
44 56 -15 19 -17 18 -81 -33z"/>
<path d="M10182 24095 c-24 -58 -27 -75 -16 -75 8 0 17 -1 20 -2 9 -4 65 133
58 143 -14 24 -34 3 -62 -66z"/>
<path d="M16563 24108 c-88 -76 -86 -73 -68 -88 13 -11 20 -9 43 12 15 14 39
36 55 48 15 13 27 29 27 36 0 26 -20 23 -57 -8z"/>
<path d="M16301 23864 c-45 -46 -51 -57 -40 -70 11 -13 20 -7 70 42 45 44 56
61 47 71 -6 7 -13 13 -17 13 -3 0 -30 -25 -60 -56z"/>
<path d="M10096 23872 c-3 -4 -16 -38 -30 -75 -25 -66 -25 -67 -6 -77 11 -6
20 -9 20 -8 0 2 11 34 25 72 14 38 25 72 25 76 0 11 -28 21 -34 12z"/>
<path d="M16085 23633 c-59 -66 -62 -71 -39 -80 12 -4 30 8 65 48 54 60 55 62
36 77 -10 9 -25 -2 -62 -45z"/>
<path d="M9985 23567 c-19 -50 -45 -132 -45 -139 0 -4 9 -8 19 -8 15 0 24 15
40 62 12 34 21 67 21 74 0 17 -30 26 -35 11z"/>
<path d="M15885 23393 c-21 -26 -43 -54 -48 -61 -7 -9 -6 -18 5 -28 13 -14 17
-13 30 8 9 13 30 39 47 58 31 35 36 60 15 67 -6 2 -28 -18 -49 -44z"/>
<path d="M9870 23212 c-12 -37 -23 -73 -26 -80 -2 -9 3 -12 18 -10 16 2 26 18
44 70 22 66 22 68 4 78 -16 9 -21 2 -40 -58z"/>
<path d="M15681 23120 c-45 -66 -48 -75 -27 -83 15 -6 46 22 46 40 0 6 4 13 8
15 14 5 52 75 45 81 -15 16 -33 3 -72 -53z"/>
<path d="M9794 22953 c-3 -10 -10 -29 -14 -43 -20 -59 -21 -87 -4 -94 9 -4 18
-5 19 -4 2 2 12 35 22 75 17 61 18 73 6 78 -21 8 -23 7 -29 -12z"/>
<path d="M15533 22892 c-43 -60 -67 -112 -56 -123 16 -16 26 -7 67 62 30 51
34 63 22 74 -11 12 -16 9 -33 -13z"/>
<path d="M9697 22588 c-12 -55 -13 -74 -4 -80 21 -14 24 -9 45 72 l20 80 -23
0 c-19 0 -24 -9 -38 -72z"/>
<path d="M15374 22618 c-32 -52 -64 -121 -59 -128 14 -23 32 -6 67 59 30 57
34 71 21 75 -20 8 -21 8 -29 -6z"/>
<path d="M9647 22352 c-4 -7 -24 -88 -32 -129 -2 -13 2 -24 12 -27 23 -9 30 0
36 46 4 24 9 57 13 74 4 23 2 33 -10 37 -8 3 -17 3 -19 -1z"/>
<path d="M15216 22303 c-10 -21 -24 -54 -31 -75 -12 -33 -12 -37 5 -41 14 -4
24 9 49 65 17 39 28 74 25 79 -11 19 -31 7 -48 -28z"/>
<path d="M15106 22042 c-5 -8 -56 -142 -56 -147 0 -1 9 -5 19 -8 16 -4 23 7
45 67 14 39 26 74 26 77 0 10 -29 19 -34 11z"/>
<path d="M9579 22028 c0 -7 -2 -20 -4 -28 -3 -13 -13 -69 -18 -105 -1 -5 7
-10 18 -10 20 0 21 3 40 118 5 33 4 37 -15 37 -11 0 -20 -6 -21 -12z"/>
<path d="M14975 21678 c-9 -35 -20 -71 -22 -80 -4 -13 0 -18 15 -18 16 0 24
13 41 70 12 39 19 75 16 80 -15 24 -33 5 -50 -52z"/>
<path d="M9529 21727 c-3 -7 -9 -51 -15 -100 -6 -54 -5 -59 12 -55 15 2 21 18
30 73 7 39 10 72 8 74 -4 5 -33 11 -35 8z"/>
<path d="M14887 21358 c-21 -90 -21 -88 2 -88 14 0 22 14 35 70 10 38 14 74
11 80 -16 26 -33 5 -48 -62z"/>
<path d="M9485 21411 c-2 -5 -8 -37 -11 -72 -3 -35 -8 -67 -10 -70 -6 -10 28
-21 37 -12 4 4 11 40 14 79 6 59 4 72 -9 77 -8 3 -18 2 -21 -2z"/>
<path d="M14824 21073 c-3 -21 -10 -55 -14 -76 -6 -29 -5 -40 5 -44 23 -8 32
4 38 49 4 24 9 58 13 76 6 28 4 32 -14 32 -17 0 -23 -8 -28 -37z"/>
<path d="M9449 21088 c-5 -70 -10 -125 -14 -135 -3 -8 4 -13 16 -13 24 0 28 9
31 90 3 55 0 65 -14 68 -10 2 -18 -2 -19 -10z"/>
<path d="M14777 20768 c-3 -13 -9 -49 -12 -80 -6 -54 -5 -58 14 -58 13 0 21 7
22 18 0 9 2 28 4 42 16 98 16 100 -4 100 -11 0 -21 -9 -24 -22z"/>
<path d="M9419 20728 c-1 -29 -2 -65 -3 -80 -2 -21 2 -28 14 -28 23 0 27 11
29 93 2 62 0 67 -18 67 -18 0 -21 -7 -22 -52z"/>
<path d="M9409 20457 c-7 -66 -5 -148 3 -153 20 -13 32 18 33 85 2 60 0 70
-16 74 -11 3 -20 0 -20 -6z"/>
<path d="M14741 20413 c-1 -32 -4 -65 -7 -74 -2 -9 2 -21 9 -28 23 -19 35 7
39 84 3 65 1 70 -18 73 -19 3 -21 -3 -23 -55z"/>
<path d="M20373 30784 c-8 -23 0 -26 80 -29 58 -3 77 -1 81 10 8 22 -12 29
-87 31 -52 2 -70 -1 -74 -12z"/>
<path d="M20695 30782 c-3 -3 -5 -13 -5 -21 0 -14 14 -17 80 -19 75 -3 80 -2
80 17 0 18 -6 21 -52 22 -29 0 -63 2 -76 3 -12 2 -24 0 -27 -2z"/>
<path d="M21010 30744 c0 -21 5 -24 38 -25 20 0 54 -2 75 -4 27 -2 40 1 44 11
8 22 0 25 -64 30 -32 3 -66 7 -75 9 -13 2 -18 -3 -18 -21z"/>
<path d="M21328 30722 c-18 -21 2 -30 78 -37 65 -6 72 -5 76 12 5 17 -3 20
-69 29 -58 7 -77 7 -85 -4z"/>
<path d="M21642 30679 c3 -24 14 -28 114 -43 38 -5 41 -4 40 16 -1 22 -4 23
-91 33 -27 4 -53 9 -58 12 -5 3 -7 -5 -5 -18z"/>
<path d="M21956 30633 c-9 -23 0 -30 46 -36 24 -4 58 -9 76 -13 28 -6 32 -4
32 14 0 17 -8 23 -37 28 -21 3 -55 10 -75 14 -28 6 -38 4 -42 -7z"/>
<path d="M22270 30576 c0 -9 0 -19 0 -23 -1 -7 98 -31 133 -32 21 -1 24 38 2
40 -8 1 -18 2 -22 3 -5 1 -24 6 -43 10 -19 4 -43 10 -52 12 -12 4 -18 0 -18
-10z"/>
<path d="M22576 30504 c-9 -22 -7 -23 61 -39 78 -19 93 -19 93 3 0 15 -13 22
-57 31 -32 7 -65 14 -74 17 -10 3 -19 -3 -23 -12z"/>
<path d="M22883 30425 c-7 -20 -11 -18 74 -42 63 -18 73 -19 78 -5 8 22 -2 28
-71 46 -76 19 -73 19 -81 1z"/>
<path d="M23187 30336 c-4 -11 12 -20 58 -35 71 -23 95 -26 95 -11 0 6 0 13 1
17 0 7 -108 43 -132 43 -9 0 -19 -6 -22 -14z"/>
<path d="M23497 30254 c-19 -19 -1 -35 64 -56 60 -19 71 -20 79 -8 16 25 20
23 -125 67 -6 2 -14 1 -18 -3z"/>
<path d="M23796 30153 c-3 -4 -6 -13 -6 -22 1 -23 139 -68 151 -50 4 8 5 17 1
21 -13 12 -140 57 -146 51z"/>
<path d="M24086 30025 c-4 -10 2 -19 17 -24 12 -5 44 -19 70 -30 27 -12 53
-19 58 -15 23 14 4 34 -56 58 -76 30 -81 31 -89 11z"/>
<path d="M24383 29905 c-7 -20 -10 -17 69 -53 64 -29 69 -30 78 -13 8 16 0 23
-60 50 -82 36 -79 36 -87 16z"/>
<path d="M24673 29775 c-7 -19 -11 -16 66 -55 51 -25 66 -29 72 -18 14 22 12
24 -56 57 -77 36 -74 36 -82 16z"/>
<path d="M24956 29634 c-4 -9 -5 -18 -4 -18 38 -22 128 -66 136 -66 5 0 12 7
15 15 4 9 -11 24 -50 44 -76 41 -89 45 -97 25z"/>
<path d="M25237 29486 c-4 -10 14 -26 58 -50 71 -40 80 -42 89 -21 3 10 -14
25 -58 50 -70 39 -81 42 -89 21z"/>
<path d="M25516 29334 c-3 -9 -6 -17 -6 -19 0 -10 125 -75 137 -71 30 12 0 41
-94 89 -28 15 -32 15 -37 1z"/>
<path d="M25786 29165 c-4 -10 12 -26 51 -51 73 -46 79 -48 87 -28 4 9 5 18 4
19 -22 17 -121 75 -127 75 -5 0 -11 -7 -15 -15z"/>
<path d="M26053 28995 c-7 -19 -11 -14 62 -63 59 -40 75 -44 75 -17 0 14 -105
95 -122 95 -5 0 -11 -7 -15 -15z"/>
<path d="M26316 28814 c-4 -9 -5 -18 -4 -19 2 -1 29 -21 61 -44 55 -40 59 -42
72 -25 11 16 6 23 -49 61 -69 48 -71 49 -80 27z"/>
<path d="M26572 28627 c-9 -10 3 -24 51 -60 54 -42 63 -45 76 -32 14 13 13 17
-4 29 -11 8 -37 28 -59 45 -44 35 -49 36 -64 18z"/>
<path d="M26823 28435 c-10 -11 -1 -23 50 -64 54 -44 63 -49 76 -36 8 8 13 16
10 18 -32 27 -120 97 -122 97 -1 -1 -7 -7 -14 -15z"/>
<path d="M27069 28234 c-12 -14 -10 -19 11 -36 14 -11 40 -33 57 -49 36 -32
48 -36 56 -15 3 8 -10 28 -31 47 -20 18 -46 41 -58 51 -19 17 -22 17 -35 2z"/>
<path d="M27309 28024 c-11 -14 -5 -23 46 -70 40 -35 62 -49 66 -41 12 21 6
31 -47 79 -46 43 -53 46 -65 32z"/>
<path d="M27541 27806 c-10 -12 -2 -25 46 -70 49 -47 60 -53 70 -40 9 12 3 23
-30 57 -63 65 -72 70 -86 53z"/>
<path d="M27770 27585 c-11 -14 -6 -23 36 -68 27 -28 50 -54 52 -56 1 -3 9 2
18 10 13 14 9 22 -39 73 -48 50 -56 55 -67 41z"/>
<path d="M27992 27362 c-22 -7 -13 -26 37 -82 44 -49 51 -53 65 -40 13 13 9
21 -38 71 -28 30 -57 54 -64 51z"/>
<path d="M28194 27115 c-4 -9 10 -34 36 -63 24 -26 47 -51 51 -56 5 -5 14 -4
23 3 14 11 9 21 -36 72 -54 62 -65 69 -74 44z"/>
<path d="M28401 26877 c-7 -9 3 -29 35 -70 44 -55 66 -68 79 -47 6 10 -71 115
-92 124 -6 3 -16 -1 -22 -7z"/>
<path d="M28601 26627 c-8 -10 1 -28 37 -75 40 -52 49 -60 60 -48 16 15 14 19
-38 89 -38 51 -42 53 -59 34z"/>
<path d="M28786 26372 c-5 -8 73 -131 84 -132 3 0 12 4 19 9 12 8 8 20 -26 68
-39 56 -65 74 -77 55z"/>
<path d="M28978 26116 c-15 -11 -12 -19 25 -74 38 -56 65 -73 74 -47 1 6 -17
38 -40 71 -37 53 -45 60 -59 50z"/>
<path d="M29151 25851 c-8 -5 -10 -14 -5 -22 54 -91 76 -118 89 -113 21 9 19
15 -22 83 -41 65 -41 65 -62 52z"/>
<path d="M29315 25577 c-6 -14 61 -137 75 -137 4 0 12 6 17 13 7 8 0 29 -26
71 -38 62 -57 77 -66 53z"/>
<path d="M20350 25417 c0 -22 4 -24 62 -26 34 -1 64 -2 67 -3 21 -2 31 4 31
20 0 16 -9 19 -62 21 -35 1 -71 4 -80 7 -14 4 -18 0 -18 -19z"/>
<path d="M20670 25390 c0 -11 6 -21 13 -21 6 -1 26 -2 42 -4 17 -1 47 -5 68
-9 35 -6 38 -4 35 16 -2 11 -10 22 -18 23 -8 1 -43 5 -77 9 -59 6 -63 5 -63
-14z"/>
<path d="M20996 25363 c-3 -4 -6 -15 -6 -26 0 -11 2 -18 5 -15 3 3 34 -1 68
-8 82 -18 87 -17 87 5 0 15 -13 21 -62 31 -35 6 -68 13 -75 15 -6 2 -14 1 -17
-2z"/>
<path d="M29470 25298 c0 -6 16 -39 35 -74 25 -44 40 -61 50 -58 21 8 19 17
-17 85 -21 38 -38 59 -50 59 -10 0 -18 -5 -18 -12z"/>
<path d="M21307 25285 c-4 -8 -3 -16 1 -18 19 -11 144 -37 152 -32 25 15 5 32
-57 48 -82 21 -89 21 -96 2z"/>
<path d="M21620 25202 c0 -17 13 -25 71 -42 59 -18 73 -19 80 -8 14 22 11 24
-53 43 -35 9 -71 20 -80 22 -13 4 -18 0 -18 -15z"/>
<path d="M21927 25101 c-4 -16 7 -24 70 -46 62 -23 77 -25 84 -14 4 8 5 17 1
21 -6 5 -139 58 -147 58 -1 0 -5 -9 -8 -19z"/>
<path d="M29631 25026 c-9 -11 -5 -28 21 -80 18 -36 35 -65 38 -65 3 -1 12 4
20 9 13 8 10 19 -20 75 -40 76 -44 80 -59 61z"/>
<path d="M22227 24981 c-3 -15 9 -24 66 -49 69 -31 87 -33 87 -8 0 10 -125 76
-144 76 -2 0 -6 -8 -9 -19z"/>
<path d="M22521 24846 c-10 -11 2 -21 61 -54 68 -38 87 -40 88 -10 0 7 -121
78 -132 78 -3 0 -11 -6 -17 -14z"/>
<path d="M29766 24742 c-8 -13 56 -142 70 -142 26 0 24 20 -8 84 -30 61 -49
79 -62 58z"/>
<path d="M22806 24695 c-3 -9 -6 -18 -6 -20 0 -2 30 -22 66 -45 52 -33 68 -39
75 -28 14 21 11 25 -38 54 -27 15 -58 33 -69 41 -19 12 -22 12 -28 -2z"/>
<path d="M23077 24515 c-9 -21 123 -112 134 -93 14 21 12 25 -52 67 -68 45
-74 47 -82 26z"/>
<path d="M29898 24454 c-9 -9 55 -144 68 -144 24 0 24 18 -4 84 -25 60 -45 79
-64 60z"/>
<path d="M23343 24331 c-9 -15 -2 -25 49 -65 36 -29 65 -45 75 -42 23 9 12 25
-53 77 -54 43 -61 46 -71 30z"/>
<path d="M30026 24162 c-5 -8 40 -130 53 -144 3 -4 13 -3 20 2 12 7 10 20 -13
79 -25 64 -46 86 -60 63z"/>
<path d="M23593 24125 c-4 -12 10 -31 48 -66 60 -54 62 -55 78 -36 8 11 -1 23
-41 58 -69 59 -77 63 -85 44z"/>
<path d="M23832 23907 c-9 -10 2 -27 47 -71 49 -49 59 -55 70 -42 10 12 3 24
-42 70 -30 31 -57 56 -59 56 -3 0 -10 -6 -16 -13z"/>
<path d="M30151 23871 c-22 -14 28 -146 55 -146 22 0 22 -1 -8 87 -24 72 -25
73 -47 59z"/>
<path d="M24060 23675 c-11 -13 -9 -20 12 -43 14 -15 38 -41 53 -59 24 -29 29
-30 43 -17 13 14 12 19 -15 47 -16 18 -41 45 -55 60 -22 25 -26 26 -38 12z"/>
<path d="M30258 23573 c-14 -4 -13 -12 9 -79 24 -68 43 -89 58 -64 6 9 -32
128 -44 141 -3 3 -13 4 -23 2z"/>
<path d="M24265 23430 c-7 -11 19 -53 69 -113 20 -25 24 -26 36 -12 11 13 6
24 -31 72 -46 59 -63 71 -74 53z"/>
<path d="M30359 23271 c-15 -5 -15 -11 2 -61 10 -30 18 -63 18 -72 1 -17 30
-25 43 -13 6 6 -30 136 -41 146 -3 4 -13 4 -22 0z"/>
<path d="M24463 23169 c-15 -15 72 -140 92 -132 22 8 19 19 -27 83 -45 64 -48
66 -65 49z"/>
<path d="M30439 22965 c-11 -10 34 -155 48 -155 23 0 24 22 5 90 -16 59 -36
83 -53 65z"/>
<path d="M24642 22901 c-11 -7 -5 -23 28 -75 43 -68 47 -71 67 -58 8 5 -1 27
-28 72 -42 70 -47 74 -67 61z"/>
<path d="M30520 22640 c0 -27 32 -140 39 -140 3 0 12 4 19 8 20 14 -16 152
-40 152 -11 0 -18 -7 -18 -20z"/>
<path d="M24801 22621 c-12 -7 -11 -14 5 -37 11 -16 28 -46 38 -66 19 -37 39
-48 51 -28 6 10 -58 133 -72 137 -4 1 -14 -1 -22 -6z"/>
<path d="M30594 22313 c4 -21 9 -55 13 -76 6 -41 14 -50 36 -42 12 5 12 16 -1
80 -12 63 -18 75 -34 75 -17 0 -19 -5 -14 -37z"/>
<path d="M24946 22332 c-3 -5 7 -39 22 -75 22 -54 31 -67 50 -67 12 0 22 3 22
7 0 3 -14 37 -31 75 -29 62 -49 82 -63 60z"/>
<path d="M25088 22042 c-23 -4 -23 -8 8 -90 21 -58 29 -69 45 -65 23 6 23 1
-2 65 -12 29 -24 62 -28 73 -4 13 -13 19 -23 17z"/>
<path d="M30654 22008 c4 -18 10 -53 13 -76 6 -44 28 -66 43 -42 4 7 4 27 0
44 -5 17 -11 48 -15 69 -5 29 -10 37 -27 37 -18 0 -20 -4 -14 -32z"/>
<path d="M25185 21730 c-4 -6 3 -42 15 -80 18 -57 26 -70 42 -70 15 0 19 5 15
18 -2 9 -13 45 -22 80 -17 58 -35 76 -50 52z"/>
<path d="M30707 21723 c-3 -4 0 -39 6 -78 10 -59 15 -70 32 -70 11 0 19 5 18
11 -1 6 -5 31 -8 55 -3 24 -7 53 -9 64 -3 20 -30 33 -39 18z"/>
<path d="M25282 21421 c-12 -7 -11 -21 3 -80 19 -77 24 -84 44 -71 12 6 11 21
-4 84 -19 78 -21 82 -43 67z"/>
<path d="M30767 21412 c-17 -3 -18 -11 -12 -75 4 -40 10 -76 14 -80 9 -9 43 2
37 12 -2 3 -7 38 -11 76 -4 39 -7 70 -8 71 -1 0 -10 -2 -20 -4z"/>
<path d="M25344 21078 c4 -18 10 -53 13 -76 6 -42 22 -60 41 -48 6 3 7 21 2
43 -4 21 -11 55 -14 76 -5 29 -11 37 -28 37 -18 0 -20 -4 -14 -32z"/>
<path d="M30785 21088 c-3 -7 -3 -22 -1 -33 3 -11 5 -41 5 -67 1 -44 3 -48 25
-48 18 0 23 5 20 18 -3 15 -11 93 -13 130 -1 6 -8 12 -16 12 -9 0 -18 -6 -20
-12z"/>
<path d="M25394 20763 c3 -16 8 -52 11 -80 6 -44 10 -53 27 -53 18 0 19 4 13
58 -10 87 -15 102 -37 102 -16 0 -19 -5 -14 -27z"/>
<path d="M30812 20700 c2 -75 4 -81 22 -78 14 2 20 10 19 26 0 12 -1 47 -2 77
-1 48 -3 55 -21 55 -19 0 -21 -5 -18 -80z"/>
<path d="M25429 20458 c-1 -7 -1 -16 0 -20 0 -4 2 -35 2 -68 2 -55 3 -60 24
-60 17 0 22 5 20 18 -2 9 -4 45 -4 80 -1 55 -3 62 -21 62 -11 0 -21 -6 -21
-12z"/>
<path d="M30833 20462 c-11 -7 -11 -147 0 -159 4 -3 12 -3 20 0 10 4 14 24 12
76 -1 71 -11 96 -32 83z"/>
<path d="M9407 19823 c-3 -7 -2 -108 2 -150 0 -6 9 -9 20 -6 16 4 18 13 16 76
-2 40 -4 75 -4 80 -1 4 -7 7 -15 7 -8 0 -17 -3 -19 -7z"/>
<path d="M14735 19800 c2 -11 5 -47 6 -80 2 -51 5 -60 21 -60 16 0 22 10 20
31 -1 4 -2 34 -3 68 -2 56 -4 61 -25 61 -18 0 -22 -5 -19 -20z"/>
<path d="M9416 19483 c1 -15 2 -52 3 -80 1 -49 3 -53 25 -53 18 0 23 5 20 18
-2 9 -5 44 -7 77 -2 52 -5 60 -23 63 -17 2 -21 -2 -18 -25z"/>
<path d="M14765 19443 c9 -90 13 -103 35 -103 17 0 18 5 14 48 -3 26 -7 56 -9
67 -2 11 -4 26 -4 33 -1 6 -10 12 -21 12 -19 0 -21 -4 -15 -57z"/>
<path d="M9439 19183 c-1 -7 0 -32 6 -118 1 -22 6 -30 21 -30 17 0 19 7 16 65
-1 36 -5 71 -7 78 -5 13 -34 17 -36 5z"/>
<path d="M14807 19173 c-2 -5 3 -42 12 -83 14 -64 19 -75 35 -72 14 3 17 10
13 32 -3 15 -9 50 -13 79 -5 40 -10 51 -25 51 -10 0 -20 -3 -22 -7z"/>
<path d="M9472 18873 c-6 -2 -10 -8 -8 -12 3 -4 8 -36 11 -71 8 -75 10 -81 31
-73 13 5 14 18 9 77 -9 89 -11 92 -43 79z"/>
<path d="M14881 18861 c-11 -7 -10 -21 5 -85 16 -71 33 -92 49 -66 6 10 -22
140 -34 152 -3 4 -12 3 -20 -1z"/>
<path d="M9514 18495 c8 -81 14 -97 35 -93 18 4 18 0 7 91 -7 58 -11 67 -29
67 -18 0 -19 -4 -13 -65z"/>
<path d="M14950 18544 c0 -28 46 -154 56 -154 24 0 25 20 4 90 -17 56 -25 70
-40 70 -11 0 -20 -3 -20 -6z"/>
<path d="M9558 18245 c-3 -4 -2 -23 2 -43 4 -20 11 -54 14 -74 5 -29 12 -38
27 -38 21 0 22 4 3 103 -9 51 -27 71 -46 52z"/>
<path d="M15068 18243 c-22 -6 -23 0 7 -80 30 -78 35 -85 54 -74 11 7 9 22
-14 85 -15 42 -28 75 -29 75 0 -1 -9 -3 -18 -6z"/>
<path d="M15188 17942 c-10 -2 -18 -5 -18 -8 0 -19 66 -144 76 -144 25 0 23
19 -9 87 -24 52 -36 68 -49 65z"/>
<path d="M9624 17934 c-11 -5 -8 -29 14 -116 1 -5 2 -15 2 -23 0 -9 9 -15 21
-15 19 0 20 4 14 43 -10 65 -25 117 -33 116 -4 0 -12 -3 -18 -5z"/>
<path d="M15325 17646 c-17 -12 -16 -17 19 -80 20 -36 40 -66 44 -66 29 1 27
20 -8 87 -34 65 -39 71 -55 59z"/>
<path d="M9693 17622 c-10 -6 -9 -22 3 -71 18 -80 25 -93 43 -81 14 8 13 20
-15 133 -1 4 -2 12 -3 17 -1 12 -11 13 -28 2z"/>
<path d="M15471 17356 c-9 -10 -8 -16 4 -26 8 -7 15 -16 15 -20 0 -11 52 -90
59 -90 3 0 12 4 20 9 11 7 5 22 -29 75 -24 36 -46 66 -50 66 -4 0 -13 -6 -19
-14z"/>
<path d="M9765 17311 c-9 -16 27 -142 42 -148 25 -10 27 6 9 82 -17 70 -34 93
-51 66z"/>
<path d="M15653 17093 c-20 -8 -16 -21 28 -84 44 -62 46 -64 67 -50 10 6 2 24
-33 75 -26 36 -47 66 -48 65 -1 0 -8 -3 -14 -6z"/>
<path d="M9858 17009 c-18 -10 -17 -16 19 -115 11 -32 19 -41 33 -37 17 5 17
9 -5 80 -13 41 -25 76 -27 78 -2 2 -11 -1 -20 -6z"/>
<path d="M15840 16825 c-11 -13 -6 -24 32 -72 50 -63 63 -72 72 -47 5 14 -9
36 -84 127 -4 4 -13 1 -20 -8z"/>
<path d="M9946 16701 c-7 -10 36 -140 47 -141 37 -1 37 -2 21 43 -9 23 -17 47
-18 52 -11 49 -35 71 -50 46z"/>
<path d="M16034 16569 c-3 -6 7 -25 23 -42 16 -18 41 -45 55 -60 22 -25 26
-26 38 -12 11 13 9 20 -12 43 -14 15 -36 39 -48 55 -25 28 -44 34 -56 16z"/>
<path d="M10048 16404 c-5 -5 33 -122 48 -146 7 -10 34 2 34 16 0 6 -11 38
-24 71 -23 55 -42 75 -58 59z"/>
<path d="M16260 16335 c-11 -13 -3 -24 44 -71 48 -46 60 -53 72 -43 13 11 7
21 -43 71 -31 32 -58 58 -59 58 -1 0 -7 -7 -14 -15z"/>
<path d="M10171 16111 c-15 -9 -11 -27 21 -103 19 -45 39 -60 52 -39 5 8 -39
129 -52 143 -4 4 -13 3 -21 -1z"/>
<path d="M16492 16107 c-11 -13 -5 -21 70 -86 34 -29 39 -31 53 -18 13 14 8
21 -44 66 -32 28 -61 51 -64 51 -2 0 -9 -6 -15 -13z"/>
<path d="M16735 15900 c-9 -15 1 -26 62 -71 48 -36 57 -39 70 -26 13 12 8 19
-39 53 -29 21 -54 42 -56 46 -5 11 -30 10 -37 -2z"/>
<path d="M10286 15811 c-3 -5 7 -38 22 -75 19 -45 32 -66 45 -66 23 0 22 14
-9 88 -25 57 -45 75 -58 53z"/>
<path d="M17002 15712 c-25 -8 -10 -29 48 -70 64 -46 75 -49 83 -27 7 16 -111
104 -131 97z"/>
<path d="M10425 15527 c-16 -12 -14 -18 16 -80 31 -62 50 -80 63 -58 4 5 -9
41 -28 80 -30 62 -35 69 -51 58z"/>
<path d="M17266 15524 c-3 -9 -6 -17 -6 -18 0 -3 109 -71 131 -82 4 -2 9 5 12
16 4 15 -8 28 -59 60 -35 22 -65 40 -68 40 -2 0 -7 -7 -10 -16z"/>
<path d="M17546 15363 c-8 -20 -5 -23 68 -63 55 -30 60 -31 72 -15 11 15 7 20
-33 42 -106 56 -100 54 -107 36z"/>
<path d="M10560 15240 c-13 -8 -9 -20 19 -72 42 -78 43 -79 61 -68 13 8 10 19
-18 74 -37 74 -42 78 -62 66z"/>
<path d="M17837 15224 c-18 -18 -2 -34 63 -63 39 -17 72 -31 74 -31 2 0 6 9 9
19 4 15 -8 24 -61 48 -36 15 -69 29 -72 31 -3 1 -9 -1 -13 -4z"/>
<path d="M18128 15083 c-3 -14 13 -24 71 -45 41 -16 76 -28 77 -28 1 0 4 9 7
19 4 16 -7 23 -67 45 -84 31 -84 31 -88 9z"/>
<path d="M18433 14975 c-7 -20 -10 -19 74 -44 86 -26 83 -25 83 -2 0 15 -15
24 -67 40 -79 25 -82 25 -90 6z"/>
<path d="M10710 14960 c-13 -8 -10 -19 20 -75 23 -42 41 -65 53 -65 9 0 17 5
17 12 0 10 -68 138 -73 138 -1 0 -9 -5 -17 -10z"/>
<path d="M18747 14893 c-19 -18 0 -31 69 -47 64 -15 78 -16 85 -5 12 19 2 25
-67 43 -69 18 -78 19 -87 9z"/>
<path d="M19060 14811 c0 -20 12 -24 95 -37 22 -3 45 -7 50 -7 6 -1 10 7 10
17 0 17 -11 22 -65 32 -87 17 -90 17 -90 -5z"/>
<path d="M19376 14765 c-8 -23 11 -30 112 -41 48 -5 52 -4 52 15 0 13 -7 21
-17 22 -10 0 -25 2 -33 3 -67 14 -109 14 -114 1z"/>
<path d="M19702 14729 c3 -21 10 -25 53 -29 78 -8 114 -1 108 19 -4 15 -17 18
-76 20 -39 1 -75 5 -80 8 -5 3 -7 -5 -5 -18z"/>
<path d="M10863 14679 c-10 -10 3 -38 62 -137 4 -6 35 11 35 18 0 13 -71 130
-79 130 -4 0 -12 -5 -18 -11z"/>
<path d="M11031 14410 c-16 -9 -16 -9 29 -83 37 -61 38 -61 59 -48 11 7 6 21
-24 70 -44 70 -46 73 -64 61z"/>
<path d="M11195 14140 c-4 -6 13 -39 36 -74 36 -54 45 -62 60 -53 15 9 13 17
-25 74 -40 61 -58 74 -71 53z"/>
<path d="M11381 13881 c-15 -10 -15 -10 39 -87 32 -46 38 -50 54 -39 16 12 14
18 -26 74 -47 65 -46 65 -67 52z"/>
<path d="M11568 13627 c-16 -10 -3 -32 79 -136 2 -3 10 2 18 10 13 13 13 18
-4 39 -11 14 -33 41 -48 61 -23 29 -32 34 -45 26z"/>
<path d="M11756 13371 c-6 -10 72 -117 91 -125 6 -3 16 1 22 8 7 8 -3 28 -36
69 -44 54 -65 68 -77 48z"/>
<path d="M11962 13127 c-14 -16 88 -134 106 -123 19 11 15 20 -35 80 -51 60
-55 63 -71 43z"/>
<path d="M12172 12887 c-9 -10 2 -27 44 -70 51 -53 74 -64 74 -34 0 13 -91
117 -101 117 -4 0 -11 -6 -17 -13z"/>
<path d="M12391 12656 c-9 -11 -1 -25 41 -69 45 -48 55 -54 70 -43 15 11 10
18 -39 69 -30 31 -56 57 -58 57 -1 0 -8 -6 -14 -14z"/>
<path d="M12611 12431 c-10 -7 0 -22 44 -66 50 -51 58 -56 72 -43 13 14 9 21
-37 64 -60 56 -60 57 -79 45z"/>
<path d="M12844 12212 c-10 -14 -3 -25 40 -64 28 -26 56 -47 63 -48 27 0 23
24 -9 53 -89 82 -82 78 -94 59z"/>
<path d="M13074 11998 c-5 -7 15 -32 52 -64 51 -46 61 -51 73 -39 13 13 11 18
-16 42 -90 81 -95 83 -109 61z"/>
<path d="M13320 11791 c-8 -16 -7 -22 9 -31 11 -5 26 -16 33 -22 67 -62 66
-61 82 -45 13 13 10 19 -31 53 -79 66 -81 67 -93 45z"/>
<path d="M13569 11594 c-6 -8 -10 -16 -8 -18 2 -2 31 -24 64 -49 53 -40 61
-43 71 -29 13 18 -3 37 -58 70 -16 9 -28 19 -28 23 0 15 -29 17 -41 3z"/>
<path d="M13822 11403 c-8 -15 0 -25 54 -61 59 -41 85 -47 84 -19 -1 10 -94
83 -122 95 -3 2 -11 -5 -16 -15z"/>
<path d="M14081 11222 c-7 -14 2 -25 54 -61 59 -40 85 -46 85 -18 0 7 -29 31
-65 54 -58 38 -65 41 -74 25z"/>
<path d="M14346 11044 c-4 -9 -5 -18 -4 -19 39 -30 124 -75 134 -71 26 10 14
25 -48 66 -70 45 -73 46 -82 24z"/>
<path d="M14615 10880 c-10 -15 0 -25 66 -64 48 -29 64 -34 70 -24 13 20 13
21 -51 61 -63 39 -75 43 -85 27z"/>
<path d="M14891 10716 c-7 -8 -8 -16 -4 -19 38 -23 125 -67 132 -67 5 0 11 6
14 14 4 10 -14 26 -54 50 -68 41 -72 42 -88 22z"/>
<path d="M15166 10565 c-6 -16 5 -23 88 -62 38 -18 51 -21 57 -11 11 18 3 25
-61 58 -68 34 -76 36 -84 15z"/>
<path d="M15453 10425 c-7 -19 -11 -16 65 -54 34 -18 67 -29 72 -26 23 14 6
35 -55 64 -77 36 -74 36 -82 16z"/>
<path d="M15740 10283 c0 -13 21 -26 66 -45 37 -15 70 -25 75 -22 22 13 4 33
-53 58 -74 31 -88 32 -88 9z"/>
<path d="M16037 10173 c-17 -16 -4 -32 41 -51 74 -32 98 -36 106 -17 4 12 -4
20 -32 32 -123 51 -106 45 -115 36z"/>
<path d="M16327 10045 c-7 -18 -7 -17 76 -49 64 -24 67 -24 77 -7 8 16 1 22
-63 45 -84 31 -83 30 -90 11z"/>
<path d="M16626 9935 c-4 -10 2 -19 17 -24 71 -27 120 -41 128 -36 23 15 4 33
-53 53 -74 26 -84 27 -92 7z"/>
<path d="M16930 9844 c0 -28 4 -31 80 -55 59 -19 71 -18 68 4 -2 17 -18 26
-75 43 -59 18 -73 20 -73 8z"/>
<path d="M17233 9753 c-3 -8 -2 -18 3 -22 15 -13 133 -43 144 -36 25 15 4 32
-66 51 -64 18 -76 19 -81 7z"/>
<path d="M17540 9662 c0 -15 14 -22 72 -35 70 -15 87 -12 88 14 0 7 -119 39
-145 39 -8 0 -15 -8 -15 -18z"/>
<path d="M17850 9591 c0 -16 11 -22 53 -30 87 -18 99 -18 102 2 2 11 -5 19
-23 23 -15 3 -43 10 -62 15 -54 14 -70 11 -70 -10z"/>
<path d="M18160 9531 c0 -15 9 -22 38 -27 20 -3 54 -10 75 -14 20 -4 39 -4 42
0 9 14 -6 40 -24 41 -9 0 -24 2 -33 4 -93 18 -98 17 -98 -4z"/>
<path d="M18473 9483 c-9 -23 6 -29 105 -40 48 -5 52 -4 52 16 0 15 -6 21 -22
22 -13 0 -47 4 -76 8 -42 6 -55 5 -59 -6z"/>
<path d="M18790 9432 c0 -17 9 -21 73 -29 57 -7 74 -6 81 5 13 22 -4 29 -81
37 -69 7 -73 6 -73 -13z"/>
<path d="M19109 9417 c-7 -15 -4 -37 4 -38 7 0 21 -2 31 -4 10 -2 40 -5 65 -7
40 -2 46 0 49 18 2 16 -3 20 -30 22 -18 2 -52 4 -75 6 -24 2 -43 3 -44 3z"/>
<path d="M19424 9391 c-2 -2 -4 -13 -4 -23 0 -15 9 -18 60 -19 33 -1 68 -2 78
-3 18 -1 25 32 7 36 -23 6 -136 13 -141 9z"/>
<path d="M19737 9359 c-4 -14 0 -19 16 -20 115 -6 147 -5 147 5 0 24 -18 31
-86 33 -64 2 -73 0 -77 -18z"/>
<path d="M30829 19817 c-8 -156 -9 -154 14 -150 20 4 22 11 24 82 2 70 1 77
-17 78 -11 1 -20 -4 -21 -10z"/>
<path d="M25431 19753 c-1 -36 -3 -71 -4 -77 -1 -6 7 -12 19 -14 19 -3 21 2
23 57 1 33 4 70 6 81 3 15 -1 20 -19 20 -21 0 -23 -5 -25 -67z"/>
<path d="M30817 19503 c-2 -4 -5 -37 -6 -73 -2 -35 -5 -68 -7 -72 -3 -5 6 -8
20 -8 25 0 26 3 28 60 1 33 2 68 2 77 1 18 -28 31 -37 16z"/>
<path d="M25409 19488 c-1 -7 -2 -26 -4 -43 -1 -16 -6 -47 -10 -68 -7 -37 -6
-39 16 -35 16 2 24 10 25 23 1 11 4 46 8 78 6 53 6 57 -14 57 -11 0 -21 -6
-21 -12z"/>
<path d="M30789 19153 c0 -21 -2 -55 -4 -76 -3 -27 0 -40 11 -44 22 -8 25 -1
30 64 3 32 7 66 9 76 2 12 -3 17 -21 17 -21 0 -24 -5 -25 -37z"/>
<path d="M25366 19168 c-5 -17 -26 -129 -26 -140 0 -4 8 -8 19 -8 18 0 27 23
37 102 2 14 5 32 6 39 4 17 -31 24 -36 7z"/>
<path d="M30762 18861 c0 -9 -3 -44 -7 -78 -7 -60 -6 -63 14 -63 16 0 21 6 22
28 0 15 2 36 4 47 12 65 10 80 -12 81 -14 1 -21 -5 -21 -15z"/>
<path d="M25300 18854 c0 -19 -1 -23 -17 -78 -15 -51 -12 -76 10 -76 8 0 20
27 30 73 21 88 21 84 -3 90 -13 3 -20 0 -20 -9z"/>
<path d="M30725 18548 c-9 -25 -23 -133 -18 -140 2 -5 11 -8 18 -8 15 0 20 15
30 82 2 21 5 41 6 45 4 21 -2 33 -16 33 -9 0 -18 -6 -20 -12z"/>
<path d="M25201 18480 c-22 -71 -21 -90 3 -90 13 0 59 138 50 152 -15 24 -34
2 -53 -62z"/>
<path d="M25096 18176 c-31 -84 -31 -84 -8 -88 13 -3 23 13 45 71 15 41 27 76
27 77 0 1 -9 4 -19 7 -16 4 -23 -7 -45 -67z"/>
<path d="M30672 18245 c3 -3 -1 -34 -8 -68 -18 -82 -17 -87 5 -87 20 0 24 11
37 95 3 22 8 43 10 46 2 4 -3 10 -12 13 -19 7 -39 8 -32 1z"/>
<path d="M24972 17877 c-32 -70 -33 -91 -5 -85 11 2 73 124 73 143 0 1 -8 5
-19 8 -15 3 -24 -9 -49 -66z"/>
<path d="M30614 17913 c-3 -16 -10 -44 -15 -63 -13 -53 -11 -70 9 -70 15 0 22
15 34 73 12 53 13 74 4 79 -19 13 -25 9 -32 -19z"/>
<path d="M24827 17581 c-32 -58 -35 -70 -21 -75 8 -3 17 -6 19 -6 9 0 75 132
70 140 -14 23 -33 6 -68 -59z"/>
<path d="M30536 17565 c-20 -82 -20 -95 2 -95 15 0 22 14 35 72 12 55 13 74 4
80 -21 13 -24 9 -41 -57z"/>
<path d="M24670 17304 c-33 -52 -39 -68 -28 -75 7 -5 16 -9 19 -9 13 0 80 123
75 137 -10 25 -24 13 -66 -53z"/>
<path d="M30456 17253 c-21 -82 -21 -88 1 -88 11 0 21 19 35 65 19 68 18 90
-5 90 -8 0 -20 -27 -31 -67z"/>
<path d="M24496 17034 c-36 -51 -44 -69 -34 -75 21 -14 23 -12 68 52 38 54 41
62 28 76 -14 13 -21 7 -62 -53z"/>
<path d="M30367 16945 c-24 -73 -24 -76 -6 -86 14 -7 20 -6 23 3 3 7 13 41 25
75 19 61 19 63 1 73 -17 9 -21 2 -43 -65z"/>
<path d="M24310 16782 c-23 -31 -43 -63 -44 -71 -2 -33 29 -14 75 44 43 55 46
62 30 72 -15 9 -24 2 -61 -45z"/>
<path d="M30268 16639 c-19 -60 -20 -71 -8 -79 8 -5 18 -6 21 -2 13 16 50 133
44 142 -16 26 -35 6 -57 -61z"/>
<path d="M24120 16552 c-18 -20 -42 -47 -53 -59 -17 -19 -18 -25 -7 -38 11
-14 18 -10 57 32 58 64 66 78 49 92 -10 8 -21 2 -46 -27z"/>
<path d="M30177 16378 c-34 -80 -40 -110 -26 -119 8 -4 17 -5 21 -1 12 13 57
140 51 146 -15 14 -34 3 -46 -26z"/>
<path d="M23876 16291 c-49 -49 -55 -59 -42 -70 12 -10 23 -5 61 31 58 53 69
72 52 87 -10 8 -27 -4 -71 -48z"/>
<path d="M23641 16071 c-39 -35 -52 -54 -47 -66 8 -22 12 -19 80 39 44 38 54
52 45 62 -16 20 -18 19 -78 -35z"/>
<path d="M30064 16085 c-7 -19 -21 -51 -29 -71 -8 -20 -12 -40 -9 -45 14 -23
34 -4 58 56 30 76 31 81 10 89 -11 4 -19 -4 -30 -29z"/>
<path d="M23388 15862 c-49 -41 -55 -49 -43 -61 10 -10 18 -11 27 -4 78 58
106 86 101 99 -8 22 -24 16 -85 -34z"/>
<path d="M29924 15753 c-16 -37 -30 -70 -32 -73 -1 -3 7 -6 19 -7 16 -2 27 11
50 63 16 36 27 69 24 74 -15 24 -34 5 -61 -57z"/>
<path d="M23133 15674 c-41 -30 -60 -50 -56 -59 8 -22 20 -19 77 22 69 50 67
48 60 66 -8 23 -10 22 -81 -29z"/>
<path d="M22874 15504 c-74 -45 -81 -51 -67 -65 13 -13 31 -6 106 40 35 22 47
44 28 55 -4 3 -35 -11 -67 -30z"/>
<path d="M29791 15463 c-25 -52 -29 -68 -19 -74 7 -5 15 -9 18 -9 10 0 70 131
65 141 -14 22 -33 5 -64 -58z"/>
<path d="M22590 15344 c-79 -43 -85 -48 -66 -63 11 -9 26 -6 73 20 72 38 77
43 67 62 -8 13 -19 10 -74 -19z"/>
<path d="M29652 15184 c-26 -52 -31 -68 -21 -80 16 -19 22 -14 59 62 26 54 30
68 19 75 -21 13 -22 13 -57 -57z"/>
<path d="M22289 15197 c-49 -24 -64 -36 -61 -49 4 -22 2 -22 60 3 86 38 93 43
90 58 -5 23 -19 21 -89 -12z"/>
<path d="M21989 15073 c-55 -21 -66 -28 -62 -44 6 -23 0 -24 78 6 83 31 85 32
78 50 -7 19 -15 18 -94 -12z"/>
<path d="M21683 14968 c-48 -16 -63 -25 -63 -40 0 -14 5 -18 18 -14 39 11 108
30 120 32 20 4 25 11 19 29 -8 19 -17 18 -94 -7z"/>
<path d="M29506 14908 c-39 -67 -43 -83 -22 -91 10 -4 26 14 50 58 40 70 42
80 22 88 -9 4 -26 -15 -50 -55z"/>
<path d="M21373 14883 c-50 -12 -63 -19 -63 -34 0 -23 -2 -23 88 -2 55 13 72
21 70 32 -4 21 -21 22 -95 4z"/>
<path d="M21052 14814 c-30 -7 -56 -15 -59 -18 -8 -8 5 -38 14 -33 5 3 40 10
79 17 63 10 71 14 67 31 -6 21 -19 21 -101 3z"/>
<path d="M20788 14775 c-3 -3 -79 -13 -105 -14 -7 -1 -13 -10 -13 -22 0 -19 4
-20 63 -14 83 8 97 13 97 34 0 14 -31 27 -42 16z"/>
<path d="M20478 14745 c-2 -2 -32 -5 -65 -6 -40 -1 -64 -7 -67 -15 -7 -17 14
-32 39 -28 11 2 44 4 73 5 42 2 52 5 52 19 0 16 -23 34 -32 25z"/>
<path d="M29346 14628 c-35 -58 -41 -95 -14 -86 7 3 29 31 49 64 26 42 33 63
26 72 -16 20 -23 15 -61 -50z"/>
<path d="M29184 14363 c-46 -73 -49 -79 -28 -87 9 -4 18 -5 19 -4 25 29 75
123 71 134 -10 25 -25 15 -62 -43z"/>
<path d="M29003 14085 c-39 -59 -41 -65 -25 -74 15 -8 25 1 61 54 40 59 46 85
18 85 -7 0 -31 -29 -54 -65z"/>
<path d="M28823 13828 c-26 -38 -39 -66 -34 -71 16 -16 34 -2 75 58 32 46 37
58 25 66 -21 13 -21 13 -66 -53z"/>
<path d="M28637 13577 c-40 -55 -44 -64 -31 -77 10 -11 17 -12 22 -4 12 20 46
64 69 92 12 14 21 26 20 27 -1 0 -9 6 -18 13 -13 10 -23 2 -62 -51z"/>
<path d="M28453 13343 c-21 -27 -44 -54 -52 -62 -11 -12 -11 -17 4 -27 15 -11
21 -9 39 14 11 15 23 29 26 32 3 3 16 17 29 32 21 24 22 28 8 42 -14 15 -19
12 -54 -31z"/>
<path d="M28245 13094 c-53 -62 -60 -74 -45 -87 17 -17 123 102 108 120 -15
19 -19 17 -63 -33z"/>
<path d="M28023 12843 c-47 -51 -50 -58 -35 -69 14 -10 24 -4 68 44 38 42 49
60 42 70 -16 19 -20 16 -75 -45z"/>
<path d="M27807 12615 c-32 -35 -45 -58 -41 -69 3 -9 8 -16 10 -16 2 0 29 25
60 55 46 46 54 58 44 70 -7 8 -15 15 -19 14 -3 -1 -27 -25 -54 -54z"/>
<path d="M27586 12393 c-50 -49 -55 -58 -43 -70 13 -13 22 -8 70 39 46 45 53
57 43 70 -10 14 -19 9 -70 -39z"/>
<path d="M27354 12175 c-52 -48 -57 -56 -44 -69 13 -13 21 -9 71 38 47 44 54
55 44 69 -10 14 -19 9 -71 -38z"/>
<path d="M27116 11963 c-60 -48 -63 -55 -43 -71 10 -8 27 2 70 41 61 56 65 62
43 70 -9 4 -38 -13 -70 -40z"/>
<path d="M26872 11759 c-54 -45 -60 -53 -47 -66 13 -12 21 -9 69 29 61 48 70
62 52 77 -9 7 -29 -3 -74 -40z"/>
<path d="M26622 11562 c-53 -40 -60 -48 -48 -60 12 -12 23 -8 75 29 65 45 68
51 49 67 -10 7 -30 -2 -76 -36z"/>
<path d="M26371 11377 c-65 -45 -65 -45 -52 -66 8 -12 20 -7 66 24 69 48 76
57 60 72 -10 9 -26 3 -74 -30z"/>
<path d="M26113 11196 c-57 -37 -75 -64 -48 -73 6 -1 38 17 71 40 51 36 60 46
50 58 -10 14 -19 11 -73 -25z"/>
<path d="M25843 11020 c-43 -28 -61 -45 -57 -55 4 -8 10 -15 15 -15 6 0 105
58 127 75 5 4 -10 35 -17 35 -3 0 -34 -18 -68 -40z"/>
<path d="M25571 10855 c-66 -42 -65 -40 -54 -59 7 -13 18 -10 73 22 62 36 83
65 50 68 -8 1 -39 -13 -69 -31z"/>
<path d="M25293 10695 c-43 -25 -60 -40 -56 -50 7 -21 17 -19 84 18 37 20 59
39 59 50 0 25 -17 21 -87 -18z"/>
<path d="M25013 10547 c-67 -34 -67 -34 -54 -56 8 -13 17 -11 58 9 77 39 92
50 86 66 -7 19 -19 17 -90 -19z"/>
<path d="M24733 10407 c-59 -29 -75 -48 -54 -62 16 -9 142 58 139 74 -5 23
-20 21 -85 -12z"/>
<path d="M24448 10277 c-64 -29 -81 -48 -58 -62 5 -3 41 9 80 27 63 29 70 35
58 49 -12 15 -19 13 -80 -14z"/>
<path d="M24195 10169 c-11 -5 -41 -18 -67 -28 -35 -15 -46 -24 -42 -36 8 -21
19 -19 92 12 42 18 62 31 60 41 -4 19 -18 23 -43 11z"/>
<path d="M23858 10037 c-66 -26 -72 -31 -65 -51 5 -13 16 -12 74 10 83 32 83
31 76 49 -7 19 -16 18 -85 -8z"/>
<path d="M23548 9929 c-55 -20 -75 -43 -45 -54 19 -7 142 41 142 56 0 21 -34
20 -97 -2z"/>
<path d="M23275 9839 c-27 -10 -58 -18 -67 -18 -12 -1 -18 -9 -18 -26 l0 -24
48 15 c26 8 59 17 75 21 34 7 40 16 24 35 -10 12 -18 12 -62 -3z"/>
<path d="M22955 9747 c-38 -11 -71 -20 -72 -21 -1 -1 0 -12 4 -24 4 -16 9 -19
22 -13 9 5 40 14 69 21 56 13 68 22 55 43 -6 10 -22 9 -78 -6z"/>
<path d="M22623 9662 c-55 -15 -58 -18 -45 -40 14 -20 152 16 152 40 0 22 -32
22 -107 0z"/>
<path d="M22345 9600 c-16 -4 -42 -11 -57 -14 -18 -4 -25 -12 -24 -23 3 -22
16 -23 86 -5 78 19 80 20 74 37 -7 16 -31 18 -79 5z"/>
<path d="M22017 9536 c-31 -7 -60 -10 -62 -7 -3 2 -4 -6 -2 -20 5 -26 5 -26
95 -9 49 10 62 16 62 31 0 22 -11 22 -93 5z"/>
<path d="M21707 9487 c-61 -9 -68 -12 -65 -31 2 -12 8 -20 13 -19 6 0 28 4 50
7 82 12 96 17 93 34 -4 20 -10 21 -91 9z"/>
<path d="M21470 9457 c-6 -6 -76 -16 -117 -17 -26 0 -31 -4 -30 -21 1 -20 5
-21 77 -15 41 4 76 9 78 11 2 2 2 13 0 25 -2 12 -5 20 -8 17z"/>
<path d="M21096 9412 c-2 -1 -21 -3 -44 -4 -36 -1 -42 -4 -42 -24 0 -16 5 -21
18 -18 9 2 43 5 75 8 66 5 70 7 61 29 -4 11 -16 15 -36 14 -16 -1 -31 -3 -32
-5z"/>
<path d="M20840 9396 c-3 -3 -37 -6 -75 -8 -62 -3 -70 -6 -73 -24 -3 -20 0
-21 75 -17 43 3 79 6 81 8 2 2 2 13 0 25 -2 12 -5 19 -8 16z"/>
<path d="M20386 9372 c-10 -2 -16 -11 -14 -20 3 -14 16 -17 68 -17 85 -1 99 3
93 25 -4 14 -15 17 -67 16 -34 0 -70 -3 -80 -4z"/>
</g>
</svg>
